<?xml version="1.0" standalone="no"?>
<!DOCTYPE svg PUBLIC "-//W3C//DTD SVG 20010904//EN"
 "http://www.w3.org/TR/2001/REC-SVG-20010904/DTD/svg10.dtd">
<svg version="1.0" xmlns="http://www.w3.org/2000/svg"
 width="876.000000pt" height="1280.000000pt" viewBox="0 0 876.000000 1280.000000"
 preserveAspectRatio="xMidYMid meet">
<metadata>
Created by potrace 1.15, written by Peter Selinger 2001-2017
</metadata>
<g transform="translate(0.000000,1280.000000) scale(0.100000,-0.100000)"
fill="#000000" stroke="none">
<path d="M2640 12794 c-19 -2 -91 -9 -160 -14 -676 -57 -1496 -290 -2290 -651
-176 -80 -183 -84 -143 -87 31 -2 86 13 225 64 795 290 1520 466 2178 530 238
23 644 23 840 0 518 -61 894 -207 1205 -468 324 -272 535 -699 585 -1183 17
-157 16 -155 47 -155 l26 0 -7 108 c-71 1097 -768 1753 -1969 1851 -117 10
-451 13 -537 5z"/>
<path d="M1686 11961 l-28 -30 33 -5 c19 -3 99 -13 179 -21 374 -41 837 -127
1159 -215 861 -235 1451 -584 1839 -1087 l33 -42 -58 -97 c-259 -433 -628
-600 -1108 -500 -747 155 -1752 792 -2938 1863 -109 99 -154 133 -173 133
l-26 0 37 -42 c85 -98 542 -553 698 -694 908 -829 1749 -1304 2495 -1409 467
-66 788 120 1045 604 l55 104 61 -104 c156 -267 251 -592 268 -920 6 -127 6
-129 30 -129 28 0 28 6 -2 -110 -13 -52 -22 -96 -20 -98 2 -2 22 29 46 69 169
290 281 756 320 1332 22 326 2 951 -40 1260 -7 51 -6 57 8 52 121 -48 394
-115 469 -115 17 0 33 -4 36 -9 7 -10 -56 -397 -108 -666 -180 -938 -401
-1637 -651 -2060 -25 -42 -45 -88 -45 -101 0 -65 222 245 334 465 240 474 411
1090 491 1778 19 163 45 506 45 591 0 50 -3 62 -16 62 -9 0 -36 17 -60 38 -80
71 -222 108 -375 100 -60 -4 -100 -12 -126 -25 -21 -11 -43 -18 -49 -16 -8 3
-13 -124 -17 -439 -3 -244 -11 -513 -17 -598 -38 -561 -87 -959 -168 -1360
l-27 -135 -7 95 c-30 382 -54 527 -124 740 -278 844 -1019 1368 -2289 1619
-308 61 -730 117 -1025 136 -52 3 -109 8 -126 11 -24 3 -36 -2 -58 -25z"/>
<path d="M4965 8720 c-895 -54 -1498 -557 -1809 -1507 -50 -155 -103 -363
-132 -518 -14 -82 -23 -107 -48 -136 -17 -20 -89 -106 -160 -190 -692 -821
-1137 -1736 -1290 -2654 -79 -470 -79 -730 0 -1215 168 -1046 632 -1791 1343
-2154 197 -101 398 -169 630 -212 157 -29 251 -31 411 -9 650 91 1003 339
1086 763 8 41 14 95 14 121 0 46 -1 48 -27 46 -26 -1 -29 -6 -45 -80 -53 -231
-211 -409 -458 -514 -201 -86 -527 -135 -740 -111 -434 47 -803 226 -1123 543
-457 454 -751 1128 -854 1957 -22 178 -24 608 -5 775 64 539 229 1073 512
1652 193 395 346 657 625 1075 l152 227 38 158 c278 1168 909 1817 1885 1938
68 8 144 15 168 15 36 0 43 3 40 18 -4 21 -32 22 -213 12z"/>
<path d="M4785 8454 c-11 -3 -31 -14 -45 -24 l-25 -20 100 0 c946 -2 1598
-524 1940 -1555 29 -88 68 -220 87 -293 l33 -133 108 -132 c830 -1014 1274
-1920 1402 -2862 9 -66 19 -219 22 -340 4 -186 2 -245 -16 -382 -143 -1109
-637 -1899 -1426 -2284 -309 -150 -603 -223 -895 -222 -404 1 -701 112 -957
357 l-94 90 26 -60 c84 -191 244 -350 449 -449 246 -117 587 -167 917 -135
676 67 1206 336 1609 815 309 368 542 886 669 1490 66 311 74 375 67 560 -39
1117 -435 2068 -1226 2950 -113 125 -406 417 -547 546 l-82 74 -21 145 c-90
620 -290 1066 -627 1390 -258 249 -564 394 -963 455 -101 15 -464 29 -505 19z"/>
<path d="M6343 4993 c771 -1189 869 -2681 257 -3931 -38 -79 -70 -146 -70
-148 0 -2 11 -4 24 -4 19 0 37 20 93 107 376 580 552 1212 530 1903 -26 794
-269 1515 -663 1964 -63 71 -178 176 -220 199 -8 4 15 -36 49 -90z"/>
</g>
</svg>
