<?xml version="1.0" standalone="no"?>
<!DOCTYPE svg PUBLIC "-//W3C//DTD SVG 20010904//EN"
 "http://www.w3.org/TR/2001/REC-SVG-20010904/DTD/svg10.dtd">
<svg version="1.0" xmlns="http://www.w3.org/2000/svg"
 width="1280.000000pt" height="1197.000000pt" viewBox="0 0 1280.000000 1197.000000"
 preserveAspectRatio="xMidYMid meet">
<metadata>
Created by potrace 1.15, written by Peter Selinger 2001-2017
</metadata>
<g transform="translate(0.000000,1197.000000) scale(0.100000,-0.100000)"
fill="#000000" stroke="none">
<path d="M5720 11950 c-8 -15 -17 -19 -32 -14 -12 3 -34 -1 -54 -12 -32 -17
-34 -17 -53 0 -11 10 -22 13 -25 8 -3 -6 -24 -13 -47 -17 -22 -4 -38 -9 -35
-12 3 -3 -16 -20 -42 -37 -77 -50 -86 -62 -49 -68 19 -3 16 -7 -20 -26 -23
-12 -45 -27 -48 -32 -12 -19 -61 -35 -142 -44 -30 -4 -31 -3 -22 21 8 23 8 24
-6 13 -13 -10 -15 -9 -15 9 0 16 6 21 24 21 13 0 31 3 40 6 10 4 16 1 16 -7 0
-17 69 -23 90 -8 10 7 11 12 4 15 -14 6 35 64 54 64 9 0 12 6 8 16 -5 12 -2
15 10 10 20 -8 45 11 38 29 -5 11 -12 11 -42 -2 -20 -8 -46 -23 -57 -33 -25
-23 -129 -53 -154 -45 -13 4 -18 12 -14 22 5 12 1 14 -18 8 -13 -4 -33 -14
-44 -21 -11 -8 -31 -14 -46 -14 -21 0 -30 -8 -43 -34 -14 -29 -33 -46 -52 -46
-3 0 -3 9 1 20 6 17 3 18 -22 10 -16 -6 -33 -20 -38 -33 -6 -12 -19 -23 -30
-25 -11 -2 -25 -10 -32 -19 -7 -9 -19 -12 -32 -8 -17 5 -21 2 -21 -14 0 -13
-6 -21 -16 -21 -20 0 -74 -31 -74 -43 0 -4 4 -6 9 -3 5 4 11 1 13 -6 3 -7 9
-8 19 -3 8 5 19 10 24 10 6 0 25 8 44 18 18 11 42 16 53 14 11 -3 21 0 25 9 3
8 10 14 16 14 6 0 20 8 31 18 11 9 3 -5 -19 -31 -21 -27 -60 -59 -86 -73 -26
-13 -50 -28 -54 -33 -3 -6 -13 -8 -23 -5 -13 5 -14 4 -3 -4 11 -8 10 -13 -7
-30 l-20 -20 34 5 c26 4 35 2 40 -11 6 -15 8 -15 26 3 20 22 38 27 38 11 0 -5
23 -10 50 -10 28 0 50 4 50 8 0 5 -14 6 -31 4 -29 -4 -30 -3 -20 17 7 11 18
21 26 21 8 0 23 9 34 21 24 26 33 12 20 -32 -9 -29 -23 -41 -83 -73 -39 -22
-90 -52 -114 -67 -47 -31 -71 -36 -90 -17 -10 10 -15 10 -21 -1 -7 -11 -14
-10 -36 5 -24 16 -25 19 -9 24 12 5 14 9 6 14 -18 11 -15 23 6 29 11 2 21 13
24 24 5 19 4 19 -23 6 -16 -8 -33 -12 -38 -9 -15 10 -24 -13 -11 -29 8 -9 8
-15 0 -20 -8 -5 -8 -11 1 -21 7 -9 8 -14 1 -14 -6 0 -14 5 -17 10 -8 13 -72
13 -79 1 -4 -5 0 -12 6 -14 10 -4 10 -6 1 -6 -7 -1 -13 -7 -13 -15 0 -8 -9
-18 -21 -21 -11 -4 -18 -9 -15 -12 3 -3 19 0 37 6 22 7 36 8 44 1 7 -6 21 -7
30 -3 14 5 17 3 13 -9 -5 -12 5 -16 50 -21 55 -5 134 -36 147 -57 3 -5 16 -10
29 -10 13 0 30 -8 40 -18 9 -11 34 -24 56 -31 22 -6 51 -24 64 -38 14 -15 33
-28 43 -29 62 -10 75 -13 81 -18 3 -3 0 -6 -7 -6 -7 0 -9 -4 -6 -10 3 -5 1
-10 -4 -10 -27 0 -8 -19 22 -22 20 -2 31 -8 29 -16 -1 -8 6 -16 17 -19 11 -3
27 -16 36 -29 8 -13 22 -24 30 -24 10 0 15 -10 15 -28 0 -27 15 -52 32 -52 4
0 8 5 8 11 0 5 -4 7 -10 4 -5 -3 -10 -1 -10 5 0 7 7 9 16 6 9 -3 17 -6 20 -6
2 0 1 -7 -3 -16 -8 -21 35 -64 64 -64 13 0 26 -7 30 -16 3 -8 12 -13 20 -10 7
3 13 0 12 -7 -3 -23 13 -57 27 -57 8 0 19 -11 24 -25 5 -14 16 -25 25 -25 8 0
23 -8 34 -19 11 -11 29 -17 44 -16 22 3 42 -15 34 -29 -1 -2 7 -13 17 -25 22
-25 10 -28 -22 -5 -23 16 -31 40 -9 28 9 -5 9 -4 1 5 -7 7 -19 11 -28 9 -12
-2 -8 -12 20 -48 l35 -45 -49 -24 c-47 -23 -51 -23 -67 -8 -9 10 -21 17 -26
17 -5 0 -9 5 -9 11 0 6 8 8 18 5 13 -4 18 0 19 14 2 24 -5 25 -36 3 -14 -9
-21 -12 -18 -6 4 6 -5 19 -18 29 -14 10 -25 27 -25 36 0 11 -5 15 -15 12 -24
-10 -18 -22 40 -89 48 -54 60 -62 83 -59 37 7 86 6 111 -2 24 -7 -7 -32 -33
-27 -21 4 -24 2 -19 -16 6 -24 14 -26 31 -9 9 9 12 8 12 -5 0 -9 4 -17 9 -17
5 0 7 9 4 20 -7 25 13 27 20 3 2 -10 8 -27 13 -37 5 -14 4 -17 -4 -12 -7 4
-10 2 -7 -6 3 -8 19 -19 35 -25 29 -11 56 -55 44 -74 -3 -5 3 -9 14 -9 20 0
72 -42 72 -59 0 -12 39 -35 47 -27 3 3 0 12 -7 21 -10 12 -9 15 5 15 25 0 98
-22 110 -32 6 -6 -7 -7 -33 -4 -41 4 -43 4 -28 -13 19 -21 11 -55 -11 -47 -8
3 -11 1 -8 -4 8 -13 55 -13 55 0 0 6 6 10 14 10 15 0 28 -47 20 -76 -4 -14 4
-24 25 -37 17 -10 36 -27 42 -38 7 -13 16 -18 29 -14 13 4 22 -1 30 -15 6 -12
21 -20 35 -20 20 0 25 -5 25 -25 0 -14 6 -25 13 -25 7 0 18 -5 25 -12 7 -7 29
-13 50 -15 20 -1 50 -3 66 -4 17 -1 32 3 34 9 2 8 12 7 33 -3 16 -9 29 -17 29
-20 0 -2 -20 -3 -45 -2 -25 1 -47 -2 -49 -8 -3 -5 -5 -4 -5 3 -1 15 -23 16
-39 0 -9 -9 -5 -15 19 -25 17 -7 40 -13 50 -13 33 0 107 -42 113 -64 3 -12 1
-23 -5 -24 -18 -7 12 -32 39 -32 13 0 30 -7 36 -16 9 -12 17 -13 39 -5 16 6
38 11 49 11 17 0 19 -2 7 -16 -10 -13 -10 -17 2 -25 18 -11 36 -11 44 0 8 14
95 8 95 -6 0 -7 5 -13 10 -13 6 0 10 5 10 11 0 6 10 10 23 9 12 -1 35 -2 50
-1 25 1 27 3 13 16 -8 8 -19 15 -25 15 -6 0 -11 4 -11 8 0 4 -16 6 -36 4 -29
-4 -36 -1 -41 17 -4 14 -9 18 -17 12 -13 -10 -66 -12 -66 -2 0 12 103 27 185
26 110 -1 245 -16 245 -27 0 -5 5 -6 10 -3 6 3 10 -3 10 -14 0 -20 -35 -61
-52 -61 -5 0 -8 -12 -7 -27 1 -47 -8 -83 -25 -102 -9 -9 -16 -33 -16 -52 l1
-34 16 29 c12 22 17 26 23 15 11 -20 18 -139 8 -139 -4 0 -8 10 -8 23 0 13 -7
32 -15 43 -14 18 -14 18 -15 -8 0 -26 -6 -30 -37 -27 -5 0 -6 8 -5 17 3 14 1
14 -9 5 -16 -16 3 -63 26 -63 24 0 17 -26 -15 -53 -16 -14 -34 -27 -40 -29 -6
-2 -13 -27 -17 -56 -3 -28 -10 -52 -14 -52 -14 0 -10 -27 6 -40 11 -9 12 -16
4 -26 -6 -8 -8 -29 -4 -52 5 -31 3 -41 -9 -45 -11 -5 -16 -20 -16 -52 0 -25 4
-45 8 -45 5 0 14 -22 21 -50 7 -27 17 -50 22 -50 5 0 9 -8 9 -17 1 -17 1 -17
14 0 12 15 16 10 34 -50 12 -38 19 -86 17 -108 -1 -22 -3 -48 -4 -59 -1 -17
-2 -17 -26 -2 -23 15 -24 15 -18 0 4 -12 2 -15 -8 -12 -21 7 -18 70 3 76 10 2
16 8 13 12 -3 5 -1 11 5 15 5 3 10 19 10 35 0 22 -4 28 -15 24 -9 -4 -15 0
-15 10 0 9 -4 16 -10 16 -5 0 -12 11 -16 25 -3 14 -9 25 -13 25 -4 0 -7 10 -7
22 1 14 -6 24 -18 26 -16 3 -17 -1 -11 -40 4 -23 11 -47 16 -53 15 -15 11
-141 -5 -154 -11 -9 -15 -9 -19 1 -3 9 -7 7 -12 -6 -5 -10 -3 -34 4 -53 26
-72 -5 -54 -85 48 -168 215 -469 535 -595 632 -46 35 -120 89 -164 119 -44 31
-102 77 -129 103 -107 99 -455 276 -725 366 -64 22 -129 46 -146 55 -16 8 -91
31 -165 50 -181 47 -198 51 -245 57 l-40 5 30 -14 30 -15 -45 6 c-122 17 -462
38 -564 36 -65 -1 -69 8 -9 19 80 16 -69 10 -160 -5 -48 -9 -111 -15 -140 -14
-54 2 -109 -5 -354 -47 -256 -44 -513 -120 -833 -248 -132 -53 -299 -135 -374
-185 -28 -18 -103 -66 -166 -106 -234 -149 -445 -316 -499 -394 -18 -27 -77
-90 -131 -140 -57 -53 -100 -101 -104 -117 -7 -27 -53 -72 -93 -89 -12 -5 -33
-24 -45 -41 -22 -29 -113 -134 -186 -213 -18 -20 -45 -61 -59 -91 -26 -56 -82
-136 -138 -199 -43 -49 -78 -114 -136 -256 -28 -66 -80 -183 -116 -259 -53
-112 -66 -151 -70 -200 -7 -98 -8 -104 -15 -99 -5 2 -7 -6 -6 -19 1 -13 -13
-67 -30 -121 -18 -53 -32 -103 -32 -110 0 -7 -9 -31 -20 -52 -11 -22 -32 -103
-47 -180 -15 -77 -28 -134 -31 -127 -7 21 16 167 48 300 43 185 73 267 45 126
-4 -20 -1 -17 10 11 9 22 14 50 12 63 -2 12 -1 22 2 22 8 0 44 141 38 147 -7
6 -56 -132 -97 -272 -20 -71 -52 -204 -69 -295 -49 -251 -41 -242 -80 -105
-27 99 -32 128 -26 174 4 31 10 61 15 66 8 12 24 73 51 202 18 92 68 247 76
240 2 -3 -10 -53 -27 -112 -35 -128 -37 -149 -7 -79 12 28 31 64 41 80 24 35
48 132 35 139 -4 3 -8 31 -7 62 1 32 4 51 6 44 7 -20 91 179 92 216 0 18 6 36
14 40 8 4 36 55 64 113 29 63 62 116 80 132 36 31 72 97 72 129 0 19 -2 20
-16 8 -51 -42 -202 -332 -294 -565 -18 -43 -35 -83 -40 -89 -16 -19 -109 -312
-140 -440 -19 -76 -34 -170 -37 -225 -8 -131 -7 -140 11 -153 13 -10 14 -21 3
-82 -6 -42 -10 -153 -9 -275 2 -113 -1 -218 -7 -235 l-9 -30 -2 40 c-1 32 -3
36 -10 20 -6 -13 -8 18 -7 85 0 65 -3 113 -11 125 -10 17 -11 12 -12 -32 0
-29 -7 -94 -16 -143 -8 -50 -14 -107 -12 -128 l4 -37 12 28 c17 39 23 34 16
-13 -6 -34 -4 -40 11 -40 16 0 17 -7 11 -67 -4 -38 -11 -142 -16 -233 -4 -91
-13 -185 -19 -208 -11 -43 -6 -129 19 -287 12 -79 39 -362 38 -400 -2 -88 23
-297 42 -355 12 -36 30 -110 40 -165 10 -55 25 -116 33 -135 8 -19 31 -116 51
-215 20 -99 53 -225 72 -280 20 -55 37 -109 39 -120 4 -22 54 -134 54 -122 1
8 -83 301 -94 330 -4 9 -5 17 -2 17 3 0 18 -35 33 -77 15 -43 52 -132 82 -198
30 -66 68 -156 86 -200 17 -44 56 -127 87 -185 57 -105 87 -178 57 -135 -8 11
-53 93 -99 183 -46 89 -85 158 -87 153 -2 -5 6 -26 17 -47 12 -21 21 -48 21
-59 0 -11 7 -30 15 -41 23 -34 65 -153 55 -159 -6 -3 -5 -16 1 -32 5 -14 7
-28 5 -30 -6 -6 -39 59 -61 125 -11 28 -23 52 -27 52 -4 0 -8 -3 -8 -6 0 -14
111 -235 144 -286 36 -56 58 -79 35 -37 -8 15 -8 24 0 32 7 7 15 0 26 -26 8
-21 29 -59 45 -86 17 -26 30 -55 30 -63 0 -9 27 -82 61 -163 33 -81 58 -152
56 -158 -11 -29 168 -302 344 -523 27 -34 49 -67 49 -74 0 -33 110 -154 190
-209 19 -13 64 -62 100 -108 49 -63 104 -115 228 -214 117 -94 172 -145 195
-182 19 -29 51 -64 73 -78 418 -275 436 -286 420 -260 -4 6 29 -7 73 -29 145
-73 432 -176 500 -179 18 -1 55 -11 81 -22 27 -11 57 -19 67 -17 12 3 5 8 -22
17 -54 18 -176 73 -172 77 2 2 43 -10 92 -26 120 -41 295 -76 510 -100 99 -11
230 -27 290 -36 61 -8 133 -17 160 -20 79 -7 335 -34 383 -40 23 -3 40 -9 37
-15 -4 -5 10 -9 29 -9 20 0 36 -4 36 -10 0 -13 -90 -26 -160 -21 -32 1 -15 18
25 24 17 2 10 2 -15 -1 -55 -6 -284 -3 -322 4 -16 3 -28 10 -28 15 0 6 5 7 10
4 6 -3 10 -1 10 4 0 7 -25 11 -60 11 -35 0 -70 6 -83 14 -20 13 -341 67 -383
65 -10 -1 -1 -7 21 -14 31 -11 35 -14 15 -14 -14 0 -45 4 -69 10 -23 5 -79 11
-123 14 -95 5 -174 19 -246 46 -66 24 -74 24 -42 -1 l25 -20 -32 10 c-18 5
-45 17 -60 28 -16 10 -69 33 -119 49 -75 25 -93 28 -107 18 -15 -11 3 -20 130
-65 178 -62 359 -110 416 -110 23 0 88 -9 144 -20 131 -25 443 -67 553 -75 47
-3 110 -10 140 -15 30 -6 74 -14 98 -19 59 -11 64 -21 11 -22 l-44 -1 35 -9
c19 -5 103 -8 185 -7 83 0 193 1 245 2 52 1 145 -1 205 -3 118 -5 261 9 310
29 29 12 295 28 295 17 0 -3 -32 -11 -71 -17 -39 -7 -69 -13 -67 -15 2 -1 93
1 203 5 164 7 209 12 250 28 60 23 223 46 270 38 30 -6 149 25 202 52 29 15
145 24 137 11 -4 -7 0 -9 12 -6 11 4 33 9 49 12 60 13 95 27 90 35 -6 9 110
49 205 70 88 19 409 154 397 167 -3 2 -24 -5 -48 -17 -26 -14 -52 -20 -69 -17
-17 4 -39 -1 -60 -15 -44 -26 -177 -71 -190 -63 -5 3 -30 -3 -54 -13 -53 -24
-180 -61 -335 -97 -85 -21 -128 -26 -170 -22 -42 5 -77 0 -141 -18 -47 -13
-123 -29 -170 -34 -47 -6 -107 -15 -135 -20 -27 -6 -72 -10 -100 -9 -33 0 0 8
100 24 83 12 206 36 275 52 577 137 678 166 820 235 84 41 175 97 158 97 -2 0
-27 -9 -55 -20 -59 -22 -178 -39 -153 -21 31 22 -11 10 -81 -24 -41 -19 -81
-35 -90 -35 -9 0 -33 -7 -53 -15 -20 -9 -76 -17 -124 -20 -48 -3 -116 -9 -152
-13 -36 -5 -66 -8 -68 -7 -2 2 36 15 85 30 433 130 831 298 1157 488 82 48
150 86 152 84 2 -2 -17 -19 -42 -38 -25 -18 -40 -35 -34 -37 6 -2 17 2 26 8 8
7 17 11 19 8 7 -7 -55 -64 -115 -107 -30 -21 -54 -43 -53 -49 2 -6 -17 -25
-42 -42 -62 -43 -57 -47 8 -6 28 19 51 40 49 46 -1 6 2 8 9 5 6 -4 23 4 37 17
15 14 62 51 105 82 59 43 82 55 91 46 28 -23 218 -80 310 -94 56 -8 39 2 -45
25 -41 11 -90 29 -109 40 -19 10 -56 28 -82 38 -43 18 -48 18 -56 4 -6 -9 -12
-12 -16 -5 -10 17 25 37 67 36 l40 -2 -30 13 c-17 7 -34 18 -37 24 -4 5 -13 8
-21 4 -11 -4 -13 -1 -9 11 8 21 27 20 75 -4 59 -31 186 -80 249 -96 126 -34
156 -44 119 -38 -20 2 -47 0 -60 -5 -19 -8 -20 -10 -5 -10 33 -1 138 -53 125
-62 -16 -10 27 -22 62 -17 38 4 151 -13 184 -28 41 -19 194 -53 288 -65 69 -8
82 -7 115 10 25 14 31 20 18 21 -11 0 -27 -7 -36 -15 -14 -12 -29 -13 -91 -5
-41 5 -87 13 -104 18 -28 8 -26 9 25 16 30 3 110 4 177 1 80 -4 123 -2 128 5
3 5 26 10 51 10 32 0 44 -4 44 -15 0 -9 -9 -15 -22 -15 -13 0 -36 -7 -52 -15
-15 -8 -44 -15 -63 -15 -20 0 -32 -4 -28 -10 3 -6 37 -10 75 -10 51 0 69 4 74
15 3 8 0 15 -7 16 -40 3 193 48 281 54 113 7 131 1 41 -14 -40 -6 -46 -9 -21
-10 18 0 68 8 112 20 44 11 90 19 103 17 13 -3 -3 -10 -43 -18 -53 -11 -60
-15 -40 -21 22 -5 20 -7 -15 -11 -22 -2 -4 -3 40 -2 44 1 93 7 110 13 16 7 83
16 150 21 66 5 136 14 155 20 106 33 415 110 424 107 7 -3 42 12 80 33 37 21
63 39 56 42 -6 2 17 17 52 33 35 17 65 33 68 37 9 12 152 88 166 88 7 0 14 4
16 8 3 9 146 92 157 92 4 0 29 14 56 31 29 19 51 27 53 20 5 -16 33 1 99 60
59 54 85 59 37 7 -26 -29 -27 -30 -4 -15 28 19 93 62 128 83 12 8 22 19 22 25
0 6 -18 -3 -39 -20 -41 -32 -51 -37 -51 -22 0 4 18 21 40 36 22 15 40 33 40
39 0 7 13 20 30 29 16 10 48 38 71 62 23 24 55 49 73 54 31 11 31 10 -11 -27
-38 -33 -41 -38 -26 -51 13 -12 35 6 181 153 98 100 161 170 155 174 -15 9 10
44 28 40 7 -2 23 15 35 37 25 45 31 70 9 41 -7 -10 -18 -15 -24 -11 -6 3 -11
0 -11 -8 0 -8 -7 -20 -15 -27 -8 -7 -39 -49 -68 -94 -30 -44 -78 -103 -108
-131 -30 -27 -68 -66 -84 -85 -17 -19 -40 -42 -50 -50 -11 -8 -5 2 13 21 32
35 42 57 20 43 -22 -14 57 89 93 120 20 17 73 77 117 133 45 56 88 106 95 110
21 14 94 107 101 130 4 12 21 39 37 60 46 56 132 233 135 273 2 41 34 114 49
111 17 -3 8 -50 -20 -102 -37 -72 -30 -73 12 -1 55 94 68 73 15 -26 -21 -39
-32 -47 -57 -42 -5 1 -7 -1 -3 -5 7 -8 -41 -111 -73 -157 -20 -28 -24 -48 -11
-48 5 0 16 16 25 36 10 20 31 52 47 72 16 21 54 86 85 146 l55 109 -6 81 c-5
65 -3 89 11 121 9 22 46 114 82 205 57 146 82 175 33 38 -10 -29 -29 -82 -41
-118 -13 -36 -31 -84 -42 -107 -10 -23 -17 -53 -15 -65 3 -20 6 -18 23 17 11
22 36 89 56 150 21 60 38 100 38 89 1 -12 -6 -41 -14 -64 -8 -24 -14 -45 -12
-47 7 -6 37 81 47 138 6 30 19 86 30 124 11 38 18 70 16 72 -2 2 -11 -8 -20
-22 -14 -22 -46 -35 -46 -19 0 3 11 34 25 68 16 39 29 99 34 157 7 64 21 127
47 199 25 73 37 125 39 170 3 93 4 98 14 82 5 -8 12 13 20 58 6 39 9 76 5 81
-3 6 0 66 7 134 11 107 15 125 30 125 14 0 18 -14 25 -72 7 -70 8 -71 15 -33
4 22 11 80 15 128 4 48 11 90 15 93 15 9 10 -132 -6 -211 -9 -41 -19 -116 -24
-167 -7 -78 -9 -84 -10 -38 -4 105 -18 99 -24 -10 -3 -58 -8 -118 -11 -135 -2
-16 -9 -59 -15 -95 -5 -36 -19 -92 -31 -125 -12 -33 -22 -75 -21 -94 1 -19 -3
-37 -8 -41 -6 -3 -19 -33 -30 -65 -12 -38 -19 -51 -20 -35 0 14 7 43 15 65 8
22 16 74 18 115 l4 75 -14 -54 c-7 -30 -17 -64 -23 -75 -16 -35 -29 -138 -22
-189 l6 -48 24 68 c13 37 34 91 47 118 12 28 29 67 38 88 17 43 57 238 86 422
10 66 23 140 28 165 15 69 17 144 8 267 -9 118 2 343 14 288 l6 -30 5 37 c3
21 1 38 -3 38 -4 0 -8 22 -8 50 0 35 5 52 17 58 14 8 15 21 7 103 -4 52 -7
172 -5 267 1 103 -1 172 -7 172 -5 0 -12 27 -16 61 -3 33 -11 68 -17 77 -8 13
-9 6 -4 -28 15 -110 16 -135 8 -122 -16 21 -15 -184 1 -231 12 -39 32 -267 20
-239 -8 18 -24 15 -25 -5 0 -10 -9 5 -18 32 -15 40 -19 93 -23 251 -3 111 -10
208 -16 219 -13 26 -17 94 -6 120 4 11 16 29 27 40 13 14 17 29 13 50 -9 46
-26 258 -22 263 2 2 11 -16 20 -40 12 -31 15 -35 11 -13 -3 17 -8 55 -11 85
-4 30 -15 66 -24 80 -9 14 -22 39 -29 55 -11 29 -11 28 -6 -12 3 -24 4 -43 2
-43 -10 0 -58 143 -67 200 -12 80 -12 80 0 80 6 0 10 -10 10 -22 0 -28 19 -63
20 -38 1 8 15 -25 31 -75 34 -100 45 -120 35 -62 -5 25 -4 37 2 33 13 -8 3 35
-13 54 -7 8 -15 29 -19 45 -4 17 -9 38 -12 47 -4 14 -1 16 13 11 17 -7 17 -6
0 17 -21 30 -18 24 -51 125 -17 55 -24 67 -20 40 4 -38 3 -37 -20 20 -13 33
-41 100 -61 148 -20 49 -41 116 -45 149 -6 42 -30 105 -79 207 -39 81 -71 156
-71 167 0 10 -11 45 -24 76 -21 51 -21 55 -5 45 10 -6 24 -24 30 -40 6 -15 14
-26 16 -23 3 2 -5 26 -16 51 -12 26 -21 51 -21 55 0 5 -16 36 -35 70 -41 73
-46 90 -10 37 39 -56 40 -45 3 23 -18 33 -36 60 -40 60 -11 0 -10 -18 2 -25 6
-3 10 -11 10 -16 0 -6 -5 -7 -11 -4 -5 4 4 -21 21 -55 22 -44 27 -61 16 -57
-11 4 -13 1 -9 -11 17 -43 -31 16 -62 78 -18 36 -40 72 -49 79 -8 7 -43 57
-77 112 -35 55 -71 105 -81 110 -10 5 -25 24 -34 42 -21 40 -76 109 -82 102
-3 -2 1 -13 9 -22 7 -10 -6 0 -29 22 -23 21 -42 45 -42 52 0 49 -97 145 -260
255 -58 40 -139 97 -180 129 -127 96 -228 159 -324 204 -51 24 -98 50 -105 59
-20 24 -6 20 66 -21 39 -21 64 -31 61 -22 -3 8 -74 49 -159 92 -85 43 -170 89
-189 102 -38 26 -157 74 -233 95 -36 10 -51 10 -56 2 -9 -14 -108 13 -136 38
-26 22 -75 41 -208 79 -91 27 -129 32 -255 37 -81 3 -167 9 -192 14 -214 41
-772 87 -727 59 10 -6 33 -8 51 -5 18 4 44 2 57 -3 18 -7 1 -10 -71 -12 -156
-5 -215 -9 -330 -25 -33 -4 -34 -4 -10 7 14 7 66 18 115 24 82 11 85 13 35 13
-51 1 -131 -8 -330 -36 -204 -30 -309 -42 -322 -37 -19 8 -189 -37 -279 -73
-41 -16 -90 -32 -109 -36 -48 -10 -110 -37 -105 -46 7 -11 -10 -22 -107 -73
-92 -48 -210 -128 -231 -156 -6 -10 -39 -35 -72 -57 -33 -21 -61 -42 -63 -46
-2 -5 -10 -8 -17 -8 -7 0 -15 -6 -18 -12 -2 -8 -8 -9 -13 -4 -5 5 -4 10 2 13
7 2 10 14 7 26 -4 20 -3 20 7 4 23 -36 35 -3 34 91 -2 90 -8 117 -24 107 -4
-3 -16 15 -25 40 -19 49 -14 95 11 95 11 0 14 6 8 22 -6 20 -5 21 10 9 9 -8
16 -9 16 -3 0 6 3 19 6 29 5 15 4 16 -5 3 -15 -20 -30 2 -23 36 4 23 22 35 22
14 0 -5 8 -10 18 -10 23 0 48 80 29 92 -9 6 -9 8 1 8 7 0 10 5 7 10 -11 18
-26 -1 -24 -28 1 -15 1 -38 0 -52 -1 -22 -3 -23 -12 -7 -6 9 -15 15 -20 11
-15 -9 2 79 17 91 22 17 29 89 10 108 -20 20 -20 27 -1 27 9 0 18 -7 21 -15 5
-12 10 -13 20 -4 11 9 14 8 14 -5 0 -9 -4 -16 -9 -16 -5 0 -11 -11 -13 -25 -6
-29 0 -32 18 -7 20 26 17 70 -5 77 -35 11 -44 31 -31 70 6 19 16 35 21 35 4 0
5 -10 1 -22 -11 -34 -9 -61 6 -66 8 -2 12 7 12 28 0 18 4 29 10 25 6 -4 7 -11
4 -17 -4 -6 -2 -8 4 -5 6 4 8 24 5 46 -3 23 -1 41 6 45 6 4 11 12 11 18 0 6
-7 5 -16 -3 -15 -12 -16 -11 -11 6 4 11 2 27 -3 34 -7 12 -10 9 -16 -13 -4
-19 -2 -31 6 -36 16 -10 4 -30 -17 -30 -11 0 -14 6 -10 23 4 12 2 29 -3 37 -6
10 -3 21 12 37 11 12 18 29 15 37 -4 10 -1 16 7 16 16 0 29 27 16 32 -14 5 0
48 16 48 7 0 19 -12 27 -26 l13 -25 14 28 c11 22 14 25 17 10 3 -9 -1 -30 -8
-46 -11 -25 -15 -27 -24 -14 -9 12 -11 7 -12 -21 -1 -20 -7 -43 -14 -52 -9
-10 -9 -18 -1 -26 16 -16 27 -4 42 44 7 24 20 51 28 61 13 14 13 24 4 54 -11
37 -1 70 19 57 5 -3 9 4 9 15 0 14 5 19 15 15 11 -5 15 1 15 25 0 19 7 34 19
40 19 11 26 57 10 67 -5 3 -9 -5 -9 -18 0 -16 -3 -19 -9 -10 -12 19 -34 -11
-27 -36 10 -29 -2 -51 -24 -45 -28 7 -33 35 -13 74 10 19 16 42 15 51 -3 15 1
17 23 8 29 -11 45 -6 45 15 0 20 28 26 38 8 8 -13 10 -13 14 4 3 11 -1 28 -8
38 -8 10 -14 15 -15 9 0 -5 -5 2 -10 15 -6 16 -6 28 2 37 10 12 14 10 25 -12
8 -14 14 -32 14 -38 0 -7 7 -13 15 -13 10 0 12 4 6 10 -6 6 -6 16 -1 26 14 26
30 84 25 89 -2 3 -9 -7 -14 -22 -14 -35 -17 -33 -19 9 -1 24 4 38 17 45 10 5
22 21 25 34 7 27 40 51 56 41 13 -8 0 -37 -22 -53 -23 -17 -22 -77 2 -77 9 0
14 7 12 18 -2 12 4 21 17 24 22 5 31 53 11 53 -5 0 -10 5 -10 10 0 6 7 10 15
10 8 0 15 6 15 13 0 8 3 7 10 -3 7 -12 12 -12 22 -2 9 9 8 12 -7 14 -11 0 -24
2 -30 3 -5 2 -16 3 -22 4 -15 1 -18 31 -3 31 6 0 10 6 10 13 0 7 14 28 31 45
17 18 26 32 19 32 -8 0 -10 3 -6 8 4 4 17 7 29 7 16 0 25 11 37 42 23 61 33
69 62 47 l25 -18 -49 -48 c-36 -35 -48 -54 -43 -67 3 -12 0 -21 -10 -25 -10
-3 -15 1 -15 12 0 14 -2 15 -10 2 -6 -9 -5 -17 3 -22 9 -5 9 -10 0 -19 -6 -6
-9 -17 -6 -25 6 -15 33 -7 33 10 0 13 132 144 190 188 28 22 31 28 18 33 -10
4 -14 13 -11 22 4 11 2 14 -8 11 -8 -2 -15 -15 -17 -27 -2 -12 -9 -20 -15 -18
-7 2 -20 0 -29 -5 -10 -5 -18 -6 -18 -2 0 13 62 84 74 84 21 0 47 36 40 54 -5
13 -2 17 12 15 42 -6 80 12 98 45 18 33 51 49 149 70 15 4 27 11 27 16 0 5 -8
7 -17 3 -14 -5 -13 -1 4 16 12 11 26 21 32 21 5 0 11 6 14 13 2 6 8 9 12 5 5
-5 0 -18 -11 -30 -22 -25 -1 -16 32 14 12 11 46 23 75 28 83 14 113 22 121 34
4 6 23 9 43 8 19 -2 35 0 35 5 0 5 15 7 33 5 33 -4 101 17 81 25 -17 6 -5 41
17 48 10 4 19 11 19 16 0 5 -18 2 -40 -7 -22 -9 -47 -13 -56 -10 -8 3 -24 1
-34 -4 -13 -7 -20 -6 -22 2 -3 9 -25 6 -79 -10 -41 -12 -105 -25 -142 -29 -37
-3 -72 -12 -78 -19 -6 -8 -24 -14 -40 -14 -15 0 -50 -13 -76 -28 -26 -16 -63
-31 -80 -35 -30 -6 -34 -4 -53 32 -23 46 -14 63 12 24 24 -38 23 -12 -2 38
-12 22 -18 44 -15 49 3 5 1 20 -6 32 -8 15 -8 23 -1 26 15 5 -131 289 -162
313 -14 11 -24 25 -21 29 7 11 -11 29 -77 83 -26 22 -46 42 -45 46 4 12 -42
63 -52 57 -6 -4 -27 2 -47 13 -21 11 -41 18 -46 15 -4 -3 -8 0 -8 5 0 6 5 11
11 11 5 0 7 5 4 10 -3 6 -1 10 4 10 6 0 11 5 11 10 0 6 -8 10 -19 10 -30 0
-81 21 -75 31 3 5 -5 13 -18 18 -13 5 -30 16 -38 26 -7 9 -28 22 -47 30 -18 8
-33 21 -33 29 0 21 -35 56 -56 56 -8 0 -12 -5 -9 -10 4 -6 10 -8 15 -5 5 3 11
1 15 -5 4 -6 -5 -10 -20 -10 -18 0 -28 7 -35 25 -11 30 -60 56 -99 53 -16 -1
-36 4 -45 11 -13 11 -19 11 -31 1 -13 -10 -15 -9 -15 9 0 11 -6 21 -14 21 -7
0 -19 7 -27 16 -7 8 -21 13 -30 11 -10 -3 -26 4 -35 14 -11 12 -31 19 -56 19
-22 0 -48 5 -58 10 -13 7 -21 7 -25 0 -8 -13 -45 -13 -45 1 0 5 -3 8 -7 6 -5
-2 -26 4 -48 14 l-40 19 45 -5 c25 -3 49 -10 55 -16 5 -5 16 -9 25 -8 17 1
-78 49 -97 49 -26 0 -23 22 8 65 33 46 43 53 54 35 3 -5 17 -10 30 -10 13 0
32 -3 42 -7 14 -6 12 -9 -14 -13 -30 -5 -31 -6 -17 -25 14 -19 16 -19 28 -2
10 13 23 16 49 13 55 -7 77 -16 77 -33 0 -16 22 -13 27 4 6 16 -25 43 -48 43
-11 0 -46 12 -77 27 -71 34 -118 35 -143 4 -10 -12 -24 -21 -31 -19 -7 3 -28
-1 -46 -9 -37 -15 -60 -9 -40 11 7 7 22 16 33 20 19 7 19 8 -5 28 l-25 20 -3
-21 c-3 -20 -4 -20 -30 -4 l-27 17 19 -22 c11 -12 16 -25 11 -30 -4 -4 -10 -1
-12 6 -3 6 -13 12 -23 12 -10 0 -27 11 -38 25 -16 20 -25 23 -55 18 -46 -7
-79 3 -57 18 11 7 8 8 -11 4 -19 -5 -28 -2 -32 9 -5 12 -12 14 -29 7 -24 -9
-73 -7 -149 4 -54 8 -77 -9 -27 -20 29 -7 30 -9 14 -20 -10 -8 -37 -17 -59
-20 -23 -4 -47 -12 -54 -17 -7 -5 -18 -8 -25 -5 -7 2 3 11 23 20 49 20 58 37
21 37 -18 0 -32 6 -36 16 -9 23 -8 24 17 25 16 1 17 3 5 6 -25 6 -58 -15 -58
-37 0 -10 -6 -20 -12 -23 -14 -4 -65 26 -85 51 -10 11 -22 12 -68 5 -30 -6
-58 -6 -61 -2 -9 16 -33 9 -44 -11z m178 -54 l27 -17 -25 6 c-61 16 -70 17
-70 6 0 -6 10 -11 22 -11 21 0 21 0 2 -22 l-19 -21 35 7 c43 9 47 10 85 7 17
-2 -23 -13 -90 -26 -66 -13 -130 -27 -142 -31 -17 -5 -23 -2 -23 10 0 9 6 16
13 17 9 0 8 2 -1 6 -8 3 -26 -6 -40 -20 -30 -27 -77 -42 -87 -27 -3 5 -15 6
-28 1 -35 -13 -117 -23 -117 -14 1 19 19 34 37 31 11 -1 32 4 47 12 20 10 29
11 35 2 4 -7 17 -9 36 -4 26 7 27 10 12 18 -15 9 -16 12 -3 29 13 17 18 18 35
8 24 -15 34 -17 27 -4 -8 13 51 22 78 11 18 -7 26 -5 30 6 3 8 13 14 23 14 10
0 27 7 37 15 20 15 20 15 0 17 -10 0 -25 1 -32 1 -25 -1 9 26 36 29 21 2 28
-2 30 -17 2 -12 15 -29 30 -39z m363 -32 c7 -4 26 -8 43 -8 35 -1 46 -22 15
-31 -14 -5 -25 -2 -31 6 -6 9 -11 10 -14 3 -5 -13 -64 -6 -64 8 0 5 -9 6 -21
3 -11 -4 -37 -4 -57 0 l-37 7 28 11 c31 13 118 14 138 1z m291 -75 c-12 -11
-27 -17 -34 -13 -13 8 17 34 41 34 11 0 9 -5 -7 -21z m-89 4 c-7 -2 -19 -2
-25 0 -7 3 -2 5 12 5 14 0 19 -2 13 -5z m-1074 -117 c-2 -2 -15 -9 -29 -15
-24 -11 -24 -11 -6 3 16 13 49 24 35 12z m-329 -104 c0 -4 -6 -14 -12 -22 -7
-8 -1 -5 13 8 29 25 48 30 29 7 -7 -8 -9 -15 -5 -15 4 0 2 -7 -5 -15 -7 -9
-20 -13 -27 -10 -8 2 -24 0 -35 -6 -17 -9 -18 -13 -7 -20 11 -7 11 -9 -3 -9
-9 0 -20 4 -23 10 -8 13 24 60 41 60 8 0 14 5 14 10 0 6 5 10 10 10 6 0 10 -4
10 -8z m-275 -270 c-3 -3 -11 0 -18 7 -9 10 -8 11 6 5 10 -3 15 -9 12 -12z
m2955 -273 c3 -3 14 -11 25 -17 20 -11 20 -11 -2 -12 -13 0 -30 12 -44 33 -20
28 -21 30 -4 17 11 -8 22 -18 25 -21z m74 -100 c18 -31 20 -39 7 -39 -8 0 -61
74 -61 85 0 12 39 -21 54 -46z m54 -115 c-4 -3 -12 5 -18 18 -12 22 -12 22 6
6 10 -10 15 -20 12 -24z m39 -39 c9 -25 -4 -29 -17 -6 -7 15 -7 21 0 21 6 0
13 -7 17 -15z m-2219 -336 c-2 -6 -7 -10 -11 -10 -4 1 -15 1 -24 2 -15 0 -15
2 2 9 28 12 37 12 33 -1z m93 -21 c26 -32 24 -38 -15 -38 -20 0 -39 7 -47 18
-11 14 -11 15 1 5 21 -19 30 -16 30 12 0 31 6 31 31 3z m25 -113 c-3 -9 -1
-15 7 -14 29 4 37 -3 37 -27 0 -22 2 -25 15 -14 11 9 15 9 15 1 0 -7 4 -10 9
-7 11 7 20 -14 13 -31 -2 -7 -11 -13 -19 -13 -19 0 -83 49 -83 64 0 6 -9 17
-20 24 -24 15 -18 32 12 32 14 0 18 -5 14 -15z m226 -275 c6 0 5 6 -3 16 -11
14 -11 16 3 13 20 -5 151 -129 143 -137 -3 -3 -14 4 -25 16 -12 12 -25 22 -31
22 -5 0 -15 11 -21 25 -6 14 -17 24 -24 21 -8 -3 -16 -1 -18 3 -3 5 -17 9 -31
9 -25 0 -25 -1 -9 -19 16 -18 16 -19 -3 -19 -29 0 -47 24 -30 39 8 6 12 23 10
39 l-4 27 16 -27 c9 -16 21 -28 27 -28z m443 -270 c4 -6 10 -8 14 -5 5 2 9 -7
9 -20 0 -29 -10 -31 -44 -9 -19 13 -22 20 -13 30 14 17 25 18 34 4z m741 -160
c3 0 14 5 25 10 23 13 23 13 0 -33 l-19 -37 -11 31 c-6 18 -10 41 -10 53 2 20
2 20 6 -1 2 -13 7 -23 9 -23z m-1959 -45 c47 -19 93 -41 102 -49 9 -7 57 -34
106 -59 50 -26 115 -60 145 -78 32 -19 49 -25 41 -15 -8 10 -40 30 -71 46 -31
16 -63 36 -71 46 -13 16 152 -66 175 -87 6 -5 17 -9 25 -9 8 0 37 -17 65 -38
28 -22 90 -62 137 -90 95 -57 144 -100 68 -61 -24 13 -82 47 -128 76 -139 87
-116 60 29 -35 225 -147 329 -228 473 -371 75 -74 137 -141 137 -147 0 -6 48
-64 108 -130 228 -254 230 -261 12 -43 -450 451 -872 773 -1325 1010 -71 38
-127 69 -122 69 4 0 46 -16 94 -35z m1897 -32 c5 -11 1 -22 -10 -30 -10 -7
-12 -13 -6 -13 20 0 14 -19 -14 -45 -21 -19 -23 -25 -10 -25 19 0 22 -20 4
-21 -10 0 -10 -2 0 -6 6 -2 12 -14 12 -25 0 -15 -5 -19 -20 -15 -11 3 -20 0
-21 -6 0 -7 -5 -1 -10 13 -12 31 7 119 28 127 8 3 12 12 9 19 -7 19 3 44 19
44 7 0 16 -8 19 -17z m-34 -278 c0 -8 -4 -15 -10 -15 -5 0 -9 -27 -9 -61 1
-34 -3 -64 -8 -68 -11 -7 -39 -101 -35 -118 2 -7 -4 -13 -13 -13 -8 0 -15 5
-15 12 0 9 -3 9 -12 0 -9 -9 -7 -16 7 -32 22 -24 28 -71 11 -82 -6 -4 -12 -27
-12 -51 -2 -64 -12 -91 -30 -76 -17 14 -18 36 -3 41 9 3 8 10 -1 28 -11 20
-10 25 4 35 17 13 22 55 7 55 -5 0 -11 -5 -13 -10 -2 -7 -10 -6 -22 3 -18 13
-18 14 5 35 12 12 17 22 11 22 -15 0 -16 52 -2 66 7 7 7 27 -1 63 -10 47 -12
50 -24 34 -7 -10 -11 -22 -8 -27 4 -5 1 -6 -5 -2 -7 4 -12 21 -12 37 0 26 3
30 23 27 12 -2 29 5 40 16 22 24 22 13 1 -20 -18 -26 -10 -49 7 -24 8 11 12
12 16 3 10 -25 23 -12 23 22 0 41 22 89 47 104 25 14 33 13 33 -4z m2910 -535
c12 -8 12 -10 -5 -9 -11 0 -29 4 -40 9 -18 8 -18 9 5 9 14 0 32 -4 40 -9z m95
-20 c7 -12 -19 -12 -55 0 -22 7 -21 8 12 9 20 1 40 -3 43 -9z m-2810 -210 c-3
-5 -11 -10 -16 -10 -6 0 -7 5 -4 10 3 6 11 10 16 10 6 0 7 -4 4 -10z m-340
-230 c3 -5 1 -10 -4 -10 -6 0 -11 5 -11 10 0 6 2 10 4 10 3 0 8 -4 11 -10z
m4407 -224 c9 -17 4 -15 -25 9 -19 17 -36 33 -36 38 -2 14 49 -25 61 -47z
m-10804 -51 c-6 -14 -13 -23 -15 -21 -5 5 15 46 22 46 3 0 -1 -11 -7 -25z
m11169 -311 c34 -28 132 -154 120 -154 -2 0 -42 43 -91 95 -48 52 -84 95 -80
95 4 0 27 -16 51 -36z m181 -201 c11 -10 24 -29 28 -43 6 -22 5 -24 -10 -11
-25 21 -59 71 -48 71 5 0 19 -8 30 -17z m527 -1166 c8 -44 15 -96 15 -116 0
-20 7 -68 15 -106 8 -39 14 -81 14 -95 0 -24 -1 -24 -9 -3 -7 18 -60 263 -60
279 0 3 5 2 10 -1 13 -8 14 -11 -15 85 -30 101 -32 128 -5 75 11 -22 27 -75
35 -118z m-12258 101 c-3 -7 -5 -2 -5 12 0 14 2 19 5 13 2 -7 2 -19 0 -25z
m12333 -568 c0 -5 -4 -10 -10 -10 -5 0 -10 5 -10 10 0 6 5 10 10 10 6 0 10 -4
10 -10z m19 -480 c1 -20 3 -22 11 -10 7 11 10 -4 10 -49 0 -37 -4 -61 -9 -55
-12 14 -41 138 -40 176 l1 33 13 -35 c7 -19 14 -46 14 -60z m28 -397 c-2 -21
-4 -6 -4 32 0 39 2 55 4 38 2 -18 2 -50 0 -70z m55 -145 c2 -81 0 -144 -4
-140 -10 11 -50 221 -44 235 2 7 5 3 6 -8 l1 -20 9 20 c4 11 12 52 17 90 8 69
8 69 10 20 2 -27 4 -116 5 -197z m-55 -215 c-3 -10 -5 -4 -5 12 0 17 2 24 5
18 2 -7 2 -21 0 -30z m-20 -103 c-4 -19 -2 -30 5 -30 15 0 5 -119 -13 -148
-12 -19 -12 -24 0 -31 10 -7 12 -27 6 -98 -13 -167 -24 -123 -25 94 0 117 3
219 6 228 11 28 27 16 21 -15z m-20 -502 c-3 -8 -6 -5 -6 6 -1 11 2 17 5 13 3
-3 4 -12 1 -19z m-120 -760 c-3 -8 -6 -5 -6 6 -1 11 2 17 5 13 3 -3 4 -12 1
-19z m-93 -289 c-35 -124 -91 -269 -113 -294 -10 -11 -38 -63 -64 -115 -25
-52 -79 -148 -121 -213 -42 -66 -76 -123 -76 -128 0 -23 -31 -65 -59 -82 -38
-22 -39 -14 -5 38 l25 40 -36 -40 c-19 -21 -38 -51 -42 -65 -13 -54 -78 -168
-133 -232 -32 -37 -64 -76 -72 -86 -7 -11 -23 -22 -35 -26 -12 -4 -56 -43 -97
-87 -80 -85 -191 -179 -291 -245 -89 -60 -91 -61 -61 -21 37 48 113 110 127
102 6 -4 42 26 80 66 38 41 83 89 100 107 17 18 37 31 44 30 7 -2 47 35 89 82
77 86 103 130 43 72 -43 -42 -49 -40 -30 6 17 41 105 140 120 135 6 -2 18 8
28 23 9 14 12 23 6 20 -18 -11 -13 10 6 25 14 12 16 12 8 0 -5 -10 -4 -12 4
-7 6 4 9 12 5 17 -3 6 3 20 14 32 11 12 52 65 92 117 40 52 70 86 67 75 -5
-16 -3 -14 11 5 9 13 29 38 43 55 37 43 66 95 73 131 4 17 15 40 24 50 22 24
181 347 218 441 15 40 29 71 31 69 2 -2 -8 -46 -23 -97z m-11479 -417 c1 -12
6 -26 10 -30 5 -4 5 2 1 13 -11 31 -1 16 60 -86 31 -52 95 -152 140 -222 46
-71 91 -141 99 -157 16 -31 261 -381 322 -459 21 -27 75 -94 121 -150 88 -106
98 -138 15 -48 -26 29 -45 48 -40 43 14 -18 7 -29 -10 -15 -15 13 -15 12 -3
-11 8 -16 15 -20 18 -12 2 8 26 -11 59 -47 30 -34 61 -61 68 -61 7 0 46 -37
86 -82 40 -46 116 -127 168 -181 l96 -97 -45 17 c-51 20 -200 156 -200 182 0
16 -21 39 -79 86 -14 11 -21 14 -17 7 4 -6 3 -12 -2 -12 -23 0 -244 260 -326
383 -21 31 -44 57 -51 57 -16 0 -61 51 -109 123 -20 31 -55 72 -77 91 -21 20
-53 59 -70 87 -17 27 -33 48 -36 45 -3 -2 18 -38 46 -80 28 -41 51 -80 51 -86
0 -6 20 -35 45 -66 58 -71 58 -84 1 -18 -98 112 -264 352 -227 330 6 -4 11 -3
11 3 0 6 7 8 16 4 13 -5 10 6 -11 43 -16 27 -32 54 -37 60 -4 6 -5 13 -2 16 3
3 -9 34 -26 68 -17 34 -30 64 -28 66 2 2 31 -51 63 -119 59 -119 143 -265 173
-300 24 -27 26 -11 3 21 -12 17 -37 59 -56 94 l-35 63 56 -60 c68 -73 63 -62
-66 135 -55 85 -130 216 -167 290 -63 129 -123 266 -123 279 0 15 112 -187
115 -207z m10145 -1216 c0 -7 -194 -127 -330 -203 -69 -39 -161 -82 -205 -96
-245 -77 -316 -96 -370 -101 -33 -3 -71 -8 -85 -11 -24 -5 -24 -5 -3 6 36 19
37 39 2 29 -42 -12 -34 10 12 32 40 20 79 23 79 6 0 -6 7 -4 18 5 10 10 30 17
43 17 14 0 50 9 82 20 72 25 80 25 72 -2 l-7 -21 36 23 c22 13 45 20 57 17 38
-10 269 72 269 95 0 6 -7 7 -15 4 -47 -19 -43 -13 10 15 33 17 64 38 70 45 5
8 66 38 135 68 143 62 130 57 130 52z m-9240 -131 c13 -14 21 -25 18 -25 -2 0
-15 11 -28 25 -13 14 -21 25 -18 25 2 0 15 -11 28 -25z m7347 -331 c-3 -3 -12
-4 -19 -1 -8 3 -5 6 6 6 11 1 17 -2 13 -5z m-50 -10 c-3 -3 -12 -4 -19 -1 -8
3 -5 6 6 6 11 1 17 -2 13 -5z m-230 -20 c-3 -3 -12 -4 -19 -1 -8 3 -5 6 6 6
11 1 17 -2 13 -5z m-6482 -84 c3 -6 -1 -7 -9 -4 -18 7 -21 14 -7 14 6 0 13 -4
16 -10z m373 -183 c56 -31 106 -57 110 -57 5 0 17 -7 28 -15 17 -13 16 -14
-15 -5 -19 5 -37 7 -41 5 -8 -5 -197 87 -225 110 -20 16 -20 16 3 5 12 -6 22
-9 22 -6 0 2 -35 23 -77 46 -43 23 -82 46 -88 51 -18 18 179 -75 283 -134z
m3582 -216 c-30 -10 -84 -24 -120 -30 -116 -19 -213 -32 -216 -28 -9 9 278 74
331 75 l60 1 -55 -18z m-123 -227 c-3 -3 -12 -4 -19 -1 -8 3 -5 6 6 6 11 1 17
-2 13 -5z"/>
<path d="M5757 11851 c-17 -6 -16 -8 9 -19 32 -15 61 1 34 18 -17 11 -19 11
-43 1z"/>
<path d="M7022 9078 c-7 -7 -12 -23 -12 -36 0 -21 2 -23 16 -11 8 7 13 21 11
30 -3 10 0 20 7 23 6 3 7 5 1 5 -6 1 -16 -4 -23 -11z"/>
<path d="M1180 1913 c1 -14 30 -47 36 -41 6 7 -17 48 -28 48 -5 0 -8 -3 -8 -7z"/>
<path d="M1230 1824 c0 -19 158 -229 209 -277 l34 -32 -40 60 c-22 33 -57 85
-77 116 -39 59 -126 151 -126 133z"/>
<path d="M10118 943 c7 -3 16 -2 19 1 4 3 -2 6 -13 5 -11 0 -14 -3 -6 -6z"/>
<path d="M6065 11950 c-8 -13 5 -13 25 0 13 8 13 10 -2 10 -9 0 -20 -4 -23
-10z"/>
<path d="M7028 11758 c-32 -11 -58 -24 -58 -29 0 -5 4 -9 9 -9 5 0 11 -9 14
-20 6 -23 27 -25 112 -9 50 9 62 8 92 -8 20 -11 31 -23 28 -31 -4 -10 0 -12
11 -8 8 3 22 6 29 6 20 0 6 40 -19 51 -23 10 -58 31 -66 40 -16 18 -57 39 -75
38 -11 0 -46 -10 -77 -21z"/>
<path d="M6830 11731 c0 -5 9 -11 21 -14 12 -3 18 -10 15 -15 -3 -6 5 -5 19 1
l25 12 -27 12 c-34 15 -53 16 -53 4z"/>
<path d="M7310 11661 c5 -11 20 -23 32 -27 13 -3 31 -13 40 -21 10 -9 25 -13
34 -9 16 6 16 8 -1 26 -9 10 -23 16 -31 13 -7 -3 -27 5 -43 16 -36 26 -45 27
-31 2z"/>
<path d="M7109 11657 c7 -9 20 -17 27 -17 8 0 14 -4 14 -9 0 -9 91 -33 98 -27
1 2 -11 9 -28 16 -16 7 -30 19 -30 26 0 8 -10 14 -22 14 -13 0 -34 3 -48 7
-22 6 -24 5 -11 -10z"/>
<path d="M7271 11601 c-11 -7 -7 -13 18 -25 17 -9 31 -12 31 -6 0 5 -7 10 -16
10 -10 0 -14 6 -10 15 6 17 -2 19 -23 6z"/>
<path d="M7443 11581 c-6 -22 -19 -28 -25 -10 -2 6 -12 7 -28 1 l-25 -9 35
-22 c44 -26 55 -26 74 1 21 29 20 35 -5 48 -17 10 -21 8 -26 -9z"/>
<path d="M4620 11565 c-7 -8 -8 -15 -2 -15 5 0 15 7 22 15 7 8 8 15 2 15 -5 0
-15 -7 -22 -15z"/>
<path d="M4665 11550 c-3 -5 1 -10 9 -10 8 0 18 5 21 10 3 6 -1 10 -9 10 -8 0
-18 -4 -21 -10z"/>
<path d="M4521 11416 c-7 -8 -19 -12 -27 -9 -8 3 -14 0 -14 -6 0 -6 6 -11 14
-11 8 0 21 -3 29 -6 8 -3 17 2 21 12 9 24 -8 38 -23 20z"/>
<path d="M4726 11423 c-4 -4 -19 -7 -33 -8 -19 0 -27 -6 -29 -22 -2 -13 -1
-23 2 -23 13 0 74 42 74 51 0 11 -4 11 -14 2z"/>
<path d="M5076 10838 c-20 -28 -2 -53 18 -26 8 11 21 14 41 11 l30 -6 -19 22
c-25 27 -51 27 -70 -1z"/>
<path d="M5199 10811 c7 -5 11 -14 7 -20 -4 -6 -2 -9 6 -6 15 6 58 -29 58 -48
0 -13 50 -40 59 -31 3 3 -3 12 -14 20 -11 8 -19 18 -17 22 2 4 -5 11 -15 17
-10 5 -32 20 -50 32 -17 13 -35 23 -40 23 -4 0 -2 -4 6 -9z"/>
<path d="M5107 10793 c-13 -12 -7 -33 9 -33 9 0 25 -10 35 -22 15 -17 19 -18
19 -5 0 9 -11 28 -25 42 -29 28 -29 28 -38 18z"/>
<path d="M5201 10738 c-6 -17 -7 -34 -3 -37 5 -3 21 -25 36 -48 25 -41 29 -43
74 -43 69 0 91 8 89 33 -2 30 -12 35 -82 42 -46 5 -65 12 -74 27 -11 17 -10
22 1 30 9 6 6 7 -9 3 -18 -5 -22 -3 -17 9 3 9 4 16 1 16 -3 0 -10 -14 -16 -32z"/>
<path d="M5467 10596 c10 -13 21 -22 25 -20 11 7 -15 44 -30 44 -9 0 -8 -7 5
-24z"/>
<path d="M8245 10421 c-3 -5 -1 -12 5 -16 5 -3 10 1 10 9 0 18 -6 21 -15 7z"/>
<path d="M8275 10420 c-3 -6 1 -7 9 -4 18 7 21 14 7 14 -6 0 -13 -4 -16 -10z"/>
<path d="M8063 10335 c-12 -9 -20 -21 -17 -28 2 -7 -5 -18 -17 -25 -27 -17
-35 -9 -13 12 29 29 6 30 -31 1 -34 -25 -58 -64 -48 -75 3 -3 10 3 17 13 7 9
19 17 26 17 21 0 131 71 127 83 -6 18 -21 18 -44 2z"/>
<path d="M5845 10110 c3 -5 8 -10 11 -10 2 0 4 5 4 10 0 6 -5 10 -11 10 -5 0
-7 -4 -4 -10z"/>
<path d="M2825 9866 c-111 -37 -152 -56 -152 -72 0 -10 7 -12 21 -8 15 4 18 3
11 -4 -14 -15 -128 -64 -120 -52 11 18 -10 10 -40 -15 -17 -14 -52 -39 -79
-56 -59 -36 -56 -47 5 -18 24 12 131 57 239 101 107 43 202 85 210 93 13 13
12 17 -5 34 -20 19 -21 19 -90 -3z"/>
<path d="M7540 9785 c-11 -13 -10 -14 4 -9 9 3 16 10 16 15 0 13 -6 11 -20 -6z"/>
<path d="M2470 9731 c-124 -48 -169 -70 -203 -98 -36 -29 -137 -89 -168 -98
-13 -4 -49 -25 -79 -45 -30 -20 -73 -47 -95 -58 -22 -12 -53 -33 -70 -47 -33
-29 -22 -25 44 17 25 15 51 28 59 28 8 0 64 31 126 69 119 74 246 141 266 141
15 0 132 65 162 90 28 24 17 24 -42 1z"/>
<path d="M6860 9620 c20 -13 33 -13 25 0 -3 6 -14 10 -23 10 -15 0 -15 -2 -2
-10z"/>
<path d="M6900 9590 c-9 -6 -10 -10 -3 -10 6 0 15 5 18 10 8 12 4 12 -15 0z"/>
<path d="M2195 9496 c-11 -7 -50 -32 -86 -55 -38 -24 -73 -39 -81 -36 -10 4
-34 -10 -64 -37 -72 -64 -398 -309 -452 -340 -49 -28 -139 -111 -207 -190 -22
-25 -68 -76 -102 -111 -35 -36 -63 -71 -63 -78 0 -7 50 38 111 101 61 63 114
115 118 115 9 0 240 201 273 238 15 17 56 51 92 76 36 25 94 68 130 94 35 26
129 86 208 133 154 93 153 92 147 98 -2 2 -13 -2 -24 -8z"/>
<path d="M1900 9379 c-35 -31 -35 -31 -3 -9 18 11 35 25 38 30 10 16 2 11 -35
-21z"/>
<path d="M6970 9341 c0 -6 5 -13 10 -16 6 -3 10 1 10 9 0 9 -4 16 -10 16 -5 0
-10 -4 -10 -9z"/>
<path d="M1852 9318 c-6 -6 -24 -12 -39 -13 -15 -2 -37 -6 -47 -10 -15 -6 -17
-5 -11 5 5 9 4 11 -4 6 -6 -4 -9 -11 -6 -16 3 -4 -1 -13 -9 -19 -9 -8 -15 -8
-18 -2 -2 7 -11 6 -24 -2 -37 -21 -316 -251 -377 -310 -32 -32 -64 -57 -72
-57 -19 0 -269 -263 -327 -345 -43 -61 -268 -494 -268 -516 0 -22 44 21 66 63
13 27 29 47 35 45 17 -3 77 77 224 300 261 396 318 459 660 722 11 8 0 -7 -25
-33 l-45 -49 58 44 c32 24 60 54 63 65 3 12 24 35 47 51 65 46 74 49 42 13
l-30 -33 30 21 c39 27 102 81 95 82 -4 0 -11 -5 -18 -12z"/>
<path d="M6958 9223 c7 -3 16 -2 19 1 4 3 -2 6 -13 5 -11 0 -14 -3 -6 -6z"/>
<path d="M7240 9170 c0 -5 5 -10 10 -10 6 0 10 5 10 10 0 6 -4 10 -10 10 -5 0
-10 -4 -10 -10z"/>
<path d="M8847 9003 c-33 -5 -26 -23 9 -23 15 0 24 6 24 15 0 8 -1 14 -2 14
-2 -1 -15 -4 -31 -6z"/>
<path d="M9315 8993 c6 -6 28 -13 49 -16 51 -8 34 9 -19 18 -26 5 -37 4 -30
-2z"/>
<path d="M8613 8983 c9 -2 25 -2 35 0 9 3 1 5 -18 5 -19 0 -27 -2 -17 -5z"/>
<path d="M8683 8983 c9 -2 23 -2 30 0 6 3 -1 5 -18 5 -16 0 -22 -2 -12 -5z"/>
<path d="M8778 8973 c6 -2 18 -2 25 0 6 3 1 5 -13 5 -14 0 -19 -2 -12 -5z"/>
<path d="M9418 8963 c7 -3 16 -2 19 1 4 3 -2 6 -13 5 -11 0 -14 -3 -6 -6z"/>
<path d="M9666 8942 c26 -22 346 -80 352 -64 2 7 16 9 35 5 18 -3 30 -3 27 0
-10 10 -369 77 -415 76 -20 0 -20 0 1 -17z"/>
<path d="M10098 8873 c7 -3 16 -2 19 1 4 3 -2 6 -13 5 -11 0 -14 -3 -6 -6z"/>
<path d="M10180 8856 c0 -3 20 -11 45 -17 25 -6 47 -15 50 -19 4 -7 -30 -1
-165 26 -73 15 -18 -8 86 -36 60 -15 178 -51 263 -79 85 -27 158 -48 161 -46
4 2 28 -2 55 -10 27 -8 50 -13 53 -10 3 2 -4 7 -14 11 -10 3 -30 10 -44 16
-93 38 -121 47 -115 38 12 -20 -23 -9 -66 20 -24 17 -96 46 -159 66 -149 46
-150 46 -150 40z"/>
<path d="M7132 8728 c-16 -16 -15 -38 2 -38 20 0 29 17 19 35 -7 12 -12 12
-21 3z"/>
<path d="M7087 8673 c-3 -5 1 -19 9 -33 l14 -25 -6 30 c-8 35 -10 39 -17 28z"/>
<path d="M10786 8642 c11 -11 35 -27 52 -36 18 -9 32 -19 32 -21 0 -6 -41 10
-80 30 -18 9 -30 11 -30 5 0 -16 59 -49 120 -66 80 -24 150 -55 150 -68 0 -12
121 -96 158 -109 12 -5 22 -12 22 -17 0 -4 24 -22 53 -38 71 -41 261 -180 322
-237 28 -25 44 -44 38 -40 -27 13 -11 -5 25 -30 20 -14 37 -29 37 -34 0 -9
170 -161 180 -161 3 0 3 6 -1 13 -4 6 4 2 18 -11 14 -12 31 -35 38 -50 8 -15
28 -39 44 -54 17 -14 27 -30 23 -34 -4 -4 -28 12 -54 37 -36 34 -32 28 17 -28
35 -40 65 -73 67 -73 1 0 -1 8 -4 18 -11 30 22 -4 56 -56 26 -40 112 -123 100
-96 -12 26 -48 81 -74 115 -285 363 -589 641 -930 849 -165 101 -419 229 -379
192z"/>
<path d="M940 8350 c-6 -11 -8 -20 -6 -20 3 0 10 9 16 20 6 11 8 20 6 20 -3 0
-10 -9 -16 -20z"/>
<path d="M535 7748 c-4 -13 -29 -69 -56 -126 -28 -57 -59 -125 -69 -153 -11
-27 -29 -72 -41 -101 -14 -37 -16 -48 -6 -39 8 6 25 40 38 74 38 104 70 162
80 146 7 -12 9 -12 10 1 2 36 11 72 34 140 14 41 23 75 21 77 -2 3 -7 -6 -11
-19z"/>
<path d="M12129 7442 c11 -16 28 -35 38 -43 10 -8 3 5 -16 29 -37 47 -53 58
-22 14z"/>
<path d="M12201 7430 c14 -31 19 -36 19 -24 0 6 -7 19 -16 30 -14 18 -14 18
-3 -6z"/>
<path d="M386 7315 c-9 -26 -7 -32 5 -12 6 10 9 21 6 23 -2 3 -7 -2 -11 -11z"/>
<path d="M12350 7121 c8 -16 9 -26 1 -34 -10 -10 2 -45 20 -57 4 -3 26 -63 49
-134 22 -70 47 -134 55 -142 8 -8 19 -33 25 -55 6 -22 14 -37 19 -35 4 3 13
-16 19 -41 10 -34 16 -43 24 -35 16 16 -8 153 -25 146 -15 -6 -68 130 -69 177
-1 39 -26 93 -76 164 -43 61 -58 78 -42 46z"/>
<path d="M12523 6580 c23 -80 61 -189 64 -186 6 6 -45 168 -58 186 -10 13 -10
13 -6 0z"/>
<path d="M12601 6490 c0 -8 6 -42 14 -75 l15 -60 -5 59 c-5 53 -25 116 -24 76z"/>
<path d="M21 5810 c-1 -14 -4 -59 -6 -100 -3 -65 -2 -70 6 -35 5 22 8 67 6
100 -2 33 -4 49 -6 35z"/>
<path d="M13 5445 c0 -22 2 -30 4 -17 2 12 2 30 0 40 -3 9 -5 -1 -4 -23z"/>
<path d="M30 4956 c0 -14 4 -27 8 -30 5 -3 6 8 4 25 -5 35 -12 38 -12 5z"/>
<path d="M46 4765 c12 -67 24 -96 17 -40 -3 28 -10 57 -14 65 -6 9 -7 0 -3
-25z"/>
<path d="M12617 3583 c-4 -3 -7 -11 -7 -17 0 -6 5 -5 12 2 6 6 9 14 7 17 -3 3
-9 2 -12 -2z"/>
<path d="M415 3180 c21 -72 85 -205 85 -178 0 9 -80 192 -87 198 -3 3 -2 -6 2
-20z"/>
<path d="M12523 3101 c-7 -11 -15 -39 -18 -63 l-5 -43 20 55 c22 58 23 83 3
51z"/>
<path d="M725 2483 c3 -10 9 -30 12 -46 3 -15 9 -30 14 -32 4 -3 4 8 -1 25 -5
19 -5 30 1 30 6 0 5 8 -1 20 -13 25 -35 27 -25 3z"/>
<path d="M11630 1628 c-12 -22 -12 -22 6 -6 10 10 15 20 12 24 -4 3 -12 -5
-18 -18z"/>
<path d="M11232 1264 c-13 -9 -26 -14 -28 -11 -3 3 -35 -12 -72 -32 -47 -27
-68 -46 -73 -64 l-7 -27 31 16 c35 18 177 122 177 129 0 8 -4 6 -28 -11z"/>
<path d="M10885 1110 c-33 -23 -88 -57 -122 -76 -35 -20 -63 -38 -63 -40 0 -7
102 47 148 78 24 17 62 41 85 54 23 13 35 24 27 24 -8 0 -42 -18 -75 -40z"/>
<path d="M10941 1095 c-24 -19 -37 -35 -29 -35 8 0 29 16 48 35 43 44 37 44
-19 0z"/>
<path d="M7900 899 c29 -19 89 -49 101 -49 6 0 -15 14 -46 30 -56 30 -84 40
-55 19z"/>
<path d="M8023 882 c9 -14 73 -35 90 -29 6 2 -4 9 -23 15 -19 5 -44 13 -54 18
-13 5 -17 4 -13 -4z"/>
<path d="M7300 700 c-200 -121 -205 -124 -156 -105 45 18 49 18 41 5 -3 -6 1
-7 10 -3 11 4 13 8 6 12 -11 7 125 78 141 74 4 -2 36 14 70 35 45 27 63 45 64
60 1 12 -1 22 -5 21 -3 0 -80 -45 -171 -99z m145 55 c-16 -14 -34 -25 -40 -25
-9 0 55 49 65 49 3 0 -8 -11 -25 -24z"/>
<path d="M7475 740 c-3 -5 -2 -10 4 -10 5 0 13 5 16 10 3 6 2 10 -4 10 -5 0
-13 -4 -16 -10z"/>
<path d="M9270 686 c-79 -8 -94 -12 -60 -14 69 -6 215 8 199 19 -8 5 -18 8
-24 7 -5 0 -57 -6 -115 -12z"/>
<path d="M7345 670 c-27 -12 -33 -19 -20 -19 11 0 31 8 45 19 30 24 27 24 -25
0z"/>
<path d="M7560 643 c-25 -15 -47 -31 -49 -36 -2 -4 -34 -28 -72 -53 -72 -46
-97 -72 -31 -33 49 30 192 131 198 141 8 12 3 10 -46 -19z"/>
<path d="M7270 640 c-8 -5 -10 -10 -5 -10 6 0 17 5 25 10 8 5 11 10 5 10 -5 0
-17 -5 -25 -10z"/>
<path d="M7197 575 c-36 -14 -89 -45 -75 -45 13 0 118 49 118 54 0 4 -1 6 -2
5 -2 0 -20 -7 -41 -14z"/>
<path d="M7320 532 c-30 -15 -88 -42 -129 -60 -41 -18 -72 -35 -69 -37 6 -6
216 85 249 109 34 24 12 18 -51 -12z"/>
<path d="M7053 470 c-13 -5 -23 -12 -23 -15 0 -9 16 -5 36 10 22 16 19 18 -13
5z"/>
<path d="M4323 133 c9 -2 23 -2 30 0 6 3 -1 5 -18 5 -16 0 -22 -2 -12 -5z"/>
</g>
</svg>
