<?xml version="1.0" standalone="no"?>
<!DOCTYPE svg PUBLIC "-//W3C//DTD SVG 20010904//EN"
 "http://www.w3.org/TR/2001/REC-SVG-20010904/DTD/svg10.dtd">
<svg version="1.0" xmlns="http://www.w3.org/2000/svg"
 width="1280.000000pt" height="944.000000pt" viewBox="0 0 1280.000000 944.000000"
 preserveAspectRatio="xMidYMid meet">
<metadata>
Created by potrace 1.15, written by Peter Selinger 2001-2017
</metadata>
<g transform="translate(0.000000,944.000000) scale(0.100000,-0.100000)"
fill="#000000" stroke="none">
<path d="M12312 9339 l-83 -80 -47 38 c-26 22 -67 54 -92 73 -45 34 -45 34
-20 4 13 -16 49 -55 79 -86 l54 -56 -72 -91 c-39 -50 -68 -91 -63 -91 4 0 41
34 82 75 41 41 77 75 81 75 4 0 46 -31 94 -70 48 -38 90 -70 93 -70 4 0 -16
24 -43 53 -28 28 -65 68 -82 87 l-32 35 60 75 c55 68 84 110 77 110 -2 0 -40
-37 -86 -81z"/>
<path d="M11840 9270 c-23 -66 -44 -120 -46 -120 -3 0 -125 71 -191 112 -60
36 -34 12 67 -63 54 -41 99 -77 100 -81 0 -4 -37 -39 -82 -79 -46 -39 -90 -78
-98 -86 -13 -14 -13 -14 5 -4 11 6 62 40 112 76 l93 65 16 -38 16 -37 -126
-120 c-69 -66 -126 -124 -127 -130 0 -5 -32 -35 -70 -65 -62 -49 -95 -81 -190
-186 -14 -16 -53 -50 -87 -77 -34 -26 -80 -71 -102 -100 -50 -67 -53 -69 -129
-124 -68 -50 -145 -138 -137 -158 2 -7 -13 -20 -37 -31 -22 -10 -58 -33 -80
-51 -42 -35 -73 -44 -63 -17 3 9 6 21 6 29 0 7 21 39 46 71 63 81 183 341 169
365 -12 19 -44 -12 -71 -71 -15 -33 -31 -60 -35 -60 -14 0 -20 37 -9 64 12 32
13 76 3 76 -18 -1 -34 -21 -105 -130 -42 -63 -100 -139 -131 -169 l-55 -54
-11 39 c-15 54 -14 69 10 144 15 46 19 79 15 115 -18 161 -113 264 -273 295
-78 16 -387 10 -404 -7 -14 -14 4 -19 106 -28 211 -20 277 -144 115 -218 -38
-17 -69 -21 -205 -23 -173 -3 -327 -17 -372 -35 l-28 -11 40 -14 c21 -8 49
-23 60 -34 12 -11 34 -20 49 -20 65 0 136 -65 136 -125 0 -31 -20 -73 -47 -97
-19 -17 -21 -16 -77 38 -36 35 -83 67 -123 86 -50 22 -63 32 -54 41 9 9 6 15
-10 28 -21 15 -21 16 -4 50 16 30 16 33 1 20 -9 -7 -19 -31 -22 -52 -4 -22 -9
-39 -12 -39 -4 0 -34 15 -69 33 -57 29 -63 35 -63 64 0 40 16 82 41 109 18 19
18 22 4 28 -9 3 -22 3 -29 -1 -27 -18 -196 -204 -212 -235 -12 -22 -20 -71
-25 -147 -5 -63 -12 -117 -16 -121 -4 -5 -80 -4 -168 0 -216 10 -302 1 -407
-45 -46 -20 -87 -41 -93 -47 -7 -7 33 -8 126 -3 81 4 165 3 210 -4 41 -5 102
-13 137 -17 59 -6 64 -5 69 15 3 12 13 21 22 21 14 0 14 -2 1 -10 -18 -11 -13
-17 35 -33 36 -12 39 -17 58 -83 28 -98 28 -181 -1 -221 -12 -17 -22 -39 -22
-48 0 -15 -6 -17 -42 -10 -24 4 -58 7 -75 7 -18 0 -33 4 -33 9 0 12 -65 11
-132 -2 -44 -9 -61 -8 -83 2 -45 22 -85 80 -94 135 l-8 49 -17 -59 c-36 -117
-3 -269 82 -381 36 -47 50 -58 116 -87 66 -29 60 -88 -14 -125 -86 -44 -146
-24 -308 99 -82 62 -139 79 -294 85 -167 7 -202 -2 -282 -78 -61 -57 -72 -88
-19 -52 49 33 82 43 149 43 108 0 151 -37 138 -120 -5 -32 0 -51 36 -118 59
-114 50 -144 -38 -127 -41 8 -172 127 -192 176 -12 28 -24 36 -33 22 -8 -14
23 -115 45 -145 24 -35 16 -61 -21 -66 -26 -4 -104 39 -125 69 -15 21 -36 18
-36 -5 0 -28 62 -103 119 -144 53 -39 91 -89 91 -120 0 -18 -31 -42 -55 -42
-12 0 -48 11 -78 25 -111 51 -183 43 -241 -26 -33 -39 -27 -48 13 -18 28 21
34 21 73 10 23 -7 54 -26 70 -43 34 -36 37 -88 11 -189 -16 -63 -16 -67 3
-105 14 -28 26 -40 44 -42 62 -7 70 -12 70 -41 0 -59 -88 -97 -154 -66 -39 19
-108 91 -133 140 -18 34 -21 93 -9 150 8 36 7 39 -6 27 -16 -13 -22 -43 -34
-162 -5 -52 -2 -76 14 -117 l20 -53 -89 0 c-103 0 -103 0 -72 96 16 52 14 72
-5 60 -6 -3 -22 -39 -37 -80 l-27 -75 -52 5 c-28 3 -123 17 -211 31 -207 32
-374 29 -540 -11 -181 -44 -408 -69 -560 -62 -142 6 -230 23 -435 84 -74 23
-196 56 -270 75 -74 19 -202 53 -285 75 -579 157 -627 166 -863 178 -296 14
-560 -45 -843 -189 -219 -112 -242 -126 -227 -145 11 -14 10 -15 -7 -8 -11 4
-23 8 -26 9 -10 3 -172 -99 -256 -162 -60 -44 -80 -65 -77 -78 3 -11 -11 -34
-36 -60 -36 -38 -43 -41 -60 -31 -18 11 -27 6 -81 -47 -50 -49 -71 -81 -119
-180 -32 -66 -61 -130 -64 -142 -4 -11 -13 -24 -21 -26 -11 -5 -11 1 2 31 8
20 19 42 25 49 5 7 8 22 6 35 -4 31 -30 26 -88 -17 -25 -18 -65 -43 -90 -55
-69 -35 -259 -168 -319 -225 -29 -27 -73 -75 -97 -107 -43 -56 -44 -56 -116
-68 -271 -44 -389 -101 -544 -261 -150 -155 -293 -433 -343 -664 -49 -226 -72
-418 -81 -660 -9 -269 -9 -271 -83 -477 -39 -111 -58 -144 -91 -160 -42 -18
-64 -109 -31 -122 26 -9 17 -44 -15 -61 -41 -21 -47 -19 -66 16 -13 26 -14 36
-3 55 6 13 15 21 19 19 4 -2 5 6 3 19 -3 13 2 30 12 39 15 16 15 17 -2 17 -10
0 -41 13 -69 29 -82 48 -136 133 -138 218 -1 66 16 85 112 129 76 35 86 54 27
54 -58 0 -144 -39 -192 -87 -66 -66 -83 -113 -96 -270 -10 -116 -9 -146 5
-214 32 -153 100 -254 207 -306 47 -24 69 -28 136 -28 101 0 137 15 177 74 18
25 36 49 42 53 12 8 36 -9 36 -27 0 -28 -99 -222 -128 -251 -106 -107 -292
-103 -393 6 -20 22 -42 40 -48 40 -20 0 30 -79 84 -135 88 -90 192 -97 351
-21 139 66 220 165 278 341 20 61 52 142 70 180 l33 70 7 -50 c8 -48 45 -160
51 -153 2 2 8 40 15 85 13 99 61 243 97 296 14 21 49 57 77 79 28 23 55 45 60
50 5 4 -8 5 -30 3 -34 -4 -35 -4 -11 4 15 5 47 9 72 9 55 0 216 46 271 77 87
50 147 144 180 280 24 101 25 315 1 420 -30 131 -88 338 -104 368 -18 36 -20
82 -3 102 7 9 29 15 51 15 22 0 39 5 39 11 0 18 60 89 75 89 7 0 34 9 59 20
l46 19 0 -49 c0 -27 -9 -73 -20 -101 l-21 -52 22 -15 c12 -8 29 -23 38 -34 11
-13 24 -17 46 -12 28 5 32 2 43 -28 10 -30 20 -37 74 -56 35 -12 94 -29 132
-38 95 -21 124 -34 180 -83 101 -87 46 1 -64 102 -54 51 -184 126 -196 114 -3
-3 2 -22 11 -42 8 -21 13 -40 10 -43 -2 -3 -34 15 -71 38 l-66 44 26 13 c14 8
26 16 26 18 0 3 -18 21 -39 40 -102 93 -151 297 -117 493 9 50 16 118 16 150
l0 57 108 54 c137 70 218 146 250 236 12 33 19 47 16 30 -29 -148 -36 -372
-15 -485 24 -122 109 -358 139 -379 4 -4 18 -27 31 -54 13 -26 28 -47 33 -47
5 0 4 9 -2 21 -20 36 -4 67 39 80 48 14 59 8 116 -61 29 -36 41 -58 35 -64 -6
-6 -10 -18 -10 -28 0 -23 -13 -23 -85 2 -32 11 -60 18 -62 16 -9 -8 62 -78
130 -129 96 -71 154 -105 397 -232 113 -59 243 -132 288 -161 46 -30 128 -77
182 -104 121 -61 162 -95 195 -166 35 -75 40 -152 21 -323 -13 -111 -26 -173
-57 -264 -47 -142 -63 -173 -122 -252 -80 -107 -92 -138 -92 -240 0 -150 37
-195 191 -234 128 -32 868 -353 1114 -483 365 -193 436 -247 478 -361 32 -86
29 -137 -13 -205 -32 -53 -34 -62 -32 -132 5 -126 72 -242 196 -333 31 -22 89
-72 129 -110 86 -81 171 -125 208 -108 29 13 30 33 4 110 -24 73 -36 270 -22
358 8 43 7 74 0 100 -12 44 -64 98 -130 132 -45 24 -46 25 -74 6 -27 -17 -27
-19 -9 -27 21 -9 14 -8 -71 14 -68 18 -95 98 -33 98 11 0 19 6 19 14 0 9 -7
12 -19 9 -10 -2 -38 5 -62 18 -39 19 -42 23 -24 30 11 4 14 8 8 8 -20 1 -15
21 4 21 13 0 11 6 -11 29 -26 27 -26 29 -7 24 12 -3 21 -1 21 6 0 12 38 15 64
5 23 -9 9 -24 -20 -24 -16 0 -24 -5 -21 -12 2 -9 26 -13 68 -14 36 0 70 -3 76
-7 6 -4 13 -1 16 7 3 7 22 17 43 20 35 7 40 5 96 -51 32 -32 56 -63 54 -69 -2
-6 0 -16 6 -22 7 -7 -5 -19 -36 -37 -25 -15 -46 -28 -46 -30 0 -1 40 -34 88
-73 l89 -69 41 24 42 25 0 -31 c0 -24 -4 -31 -19 -31 -11 0 -22 -4 -25 -8 -6
-10 245 -260 309 -309 57 -43 141 -88 205 -108 110 -36 123 -54 130 -187 6
-112 17 -133 53 -100 32 30 37 28 37 -18 0 -25 -5 -40 -12 -40 -25 0 29 -28
82 -43 109 -30 149 -36 233 -34 81 2 85 3 111 34 23 28 30 31 66 26 48 -7 73
11 90 63 17 51 -4 103 -77 192 -90 108 -145 150 -312 238 -182 96 -215 118
-322 221 -77 74 -91 84 -134 90 -48 6 -48 6 -21 20 30 16 31 21 10 51 l-15 22
-49 -25 -49 -25 -17 32 c-21 40 -35 88 -26 88 4 0 16 -7 26 -15 11 -8 30 -15
42 -15 12 0 27 -7 34 -15 7 -9 15 -13 18 -11 7 7 -155 213 -233 294 -38 41
-107 102 -153 137 -87 65 -332 215 -351 215 -6 0 -11 4 -11 8 0 4 -15 16 -33
27 -17 10 -90 57 -162 104 -147 96 -299 178 -399 216 -37 14 -127 34 -199 44
-152 23 -185 35 -285 104 -151 104 -206 225 -163 355 13 37 19 73 15 87 -5 22
-1 27 30 40 20 9 39 22 43 30 9 24 26 17 21 -9 -10 -53 13 -140 77 -292 36
-87 72 -170 78 -183 21 -43 55 -56 162 -62 81 -5 117 -13 190 -41 137 -54 297
-137 433 -227 67 -44 125 -81 128 -81 3 0 -17 25 -44 56 -67 75 -93 126 -161
316 -32 90 -70 192 -85 227 -37 92 -86 294 -86 360 -1 53 -41 246 -108 506
-17 66 -33 137 -37 158 -5 34 -8 37 -33 31 l-27 -7 23 19 c21 18 22 22 12 64
-6 25 -15 101 -20 170 -5 69 -12 140 -16 158 -6 30 -5 32 22 32 23 0 47 -19
124 -98 102 -105 297 -281 395 -357 163 -127 347 -204 565 -235 41 -6 85 -13
98 -16 20 -4 23 -2 17 16 -5 14 -2 20 9 20 9 0 16 -8 16 -19 0 -18 25 -31 62
-31 10 0 24 13 32 29 9 16 24 31 35 34 16 4 22 -2 32 -32 6 -20 15 -40 19 -44
11 -13 295 -66 298 -56 2 5 13 2 25 -5 24 -15 229 -48 437 -71 80 -9 231 -15
370 -15 247 0 333 -9 472 -51 115 -34 195 -80 329 -189 141 -115 265 -182 463
-250 65 -22 120 -40 122 -40 2 0 4 9 4 20 0 19 2 19 33 5 17 -8 52 -20 77 -27
l45 -12 -37 -9 -37 -10 67 -40 c119 -70 134 -78 140 -73 3 3 16 -9 29 -27 32
-44 24 -69 -45 -140 -76 -77 -125 -107 -264 -161 -64 -24 -172 -74 -240 -109
-166 -88 -201 -97 -370 -97 -189 0 -216 15 -217 121 0 82 -50 187 -105 220
-55 33 -100 25 -190 -33 l-80 -53 -156 -5 c-168 -5 -190 -12 -190 -57 0 -58
67 -125 230 -228 41 -26 104 -75 140 -110 71 -68 100 -81 205 -89 148 -12 253
-59 346 -157 63 -67 67 -69 113 -69 46 0 52 3 125 72 42 40 78 74 80 75 9 6
-23 33 -39 33 -17 0 -50 39 -50 58 0 5 16 2 35 -7 19 -9 32 -22 30 -28 -5 -16
5 -16 41 -3 21 8 29 8 35 -2 7 -11 13 -10 31 1 175 110 501 271 643 317 60 19
124 44 142 55 53 33 134 130 167 199 27 57 31 75 31 155 0 114 -8 129 -139
265 -56 58 -122 127 -146 155 -24 27 -92 92 -150 144 -113 103 -217 207 -230
232 -7 13 1 12 52 -5 l60 -20 112 22 c62 12 206 28 326 36 215 14 454 51 444
68 -8 13 16 38 37 38 23 0 24 -8 4 -30 -14 -16 -11 -18 39 -23 149 -15 284
-131 395 -339 87 -162 151 -494 151 -779 0 -109 2 -124 26 -169 26 -49 27 -74
8 -124 -6 -16 -4 -17 17 -11 22 6 21 4 -10 -27 -31 -31 -39 -35 -76 -30 -73 8
-124 -55 -150 -185 -15 -73 34 -217 109 -326 23 -32 58 -84 78 -115 62 -95 79
-113 102 -110 32 5 62 75 100 243 30 130 92 390 142 591 11 42 28 76 55 109
42 51 48 83 27 143 -11 30 -16 33 -40 28 l-28 -6 15 37 c14 34 14 41 -6 100
-17 52 -24 63 -38 57 -9 -4 -38 -9 -65 -12 l-49 -4 5 53 c3 29 10 55 17 57 6
2 21 12 33 21 l22 18 -27 80 c-14 44 -37 136 -51 204 -23 118 -31 168 -56 354
-13 98 -37 151 -129 285 -136 196 -175 222 -376 244 -208 23 -530 101 -615
148 -106 59 -124 68 -143 68 -13 0 -17 5 -13 18 3 9 12 46 21 82 9 36 39 129
65 208 27 79 63 207 80 285 17 78 37 171 45 207 20 90 19 114 -11 211 -22 72
-25 97 -21 174 8 141 36 230 132 418 111 217 208 464 240 609 44 196 84 250
274 367 172 107 263 113 451 32 115 -49 199 -110 341 -247 89 -85 135 -121
196 -153 127 -66 172 -122 198 -246 14 -69 21 -85 36 -85 6 0 17 -7 26 -16 30
-30 174 12 258 76 28 21 76 50 107 63 55 25 98 70 98 105 0 7 20 58 44 115 79
186 78 193 -53 331 -80 85 -108 124 -170 236 -93 170 -165 275 -286 420 -92
109 -123 153 -297 420 -41 63 -118 170 -171 237 -53 66 -97 124 -97 127 0 3
22 33 49 67 56 69 99 145 88 155 -3 4 -65 -14 -137 -39 -72 -26 -128 -43 -126
-38 3 4 73 32 156 61 157 54 175 67 250 162 20 26 20 28 4 53 -12 18 -23 25
-36 21 -59 -19 -57 -19 -51 6 10 40 23 49 61 42 l35 -7 -7 35 c-9 52 10 65 77
51 44 -9 55 -8 69 5 27 23 112 151 106 158 -3 3 -31 -9 -62 -26 -31 -18 -56
-30 -56 -27 0 3 35 26 79 51 98 56 209 176 241 260 5 15 17 29 25 32 22 9 157
183 150 194 -3 5 0 12 6 16 8 5 9 3 4 -6 -5 -9 -4 -11 4 -6 6 4 9 11 7 15 -3
4 12 25 33 45 l38 37 28 -68 c16 -37 32 -72 37 -77 7 -9 -28 119 -57 202 -13
39 -13 42 3 42 9 0 28 3 41 7 21 5 23 3 17 -12 -6 -18 -6 -18 11 -2 12 10 49
20 98 25 l80 9 -69 2 -70 1 27 28 c15 16 24 31 20 35 -3 4 -21 -9 -39 -28 -25
-27 -39 -35 -65 -34 -69 1 -69 1 -39 134 16 66 27 121 25 123 -1 1 -21 -52
-45 -118z m-280 -594 c0 -2 -8 -10 -17 -17 -16 -13 -17 -12 -4 4 13 16 21 21
21 13z m-1231 -219 c13 -16 5 -27 -19 -27 -20 0 -43 24 -33 33 11 12 40 8 52
-6z m-349 -157 c-19 -13 -30 -13 -30 0 0 6 10 10 23 10 18 0 19 -2 7 -10z
m-638 -107 c62 -59 97 -118 98 -163 0 -37 -52 -180 -66 -180 -13 0 -41 55 -73
145 -22 62 -43 255 -28 255 5 0 36 -26 69 -57z m-525 -289 c-3 -3 -12 -4 -19
-1 -8 3 -5 6 6 6 11 1 17 -2 13 -5z m193 -24 c0 -14 -7 -20 -22 -20 -20 0 -21
1 -3 20 10 11 20 20 22 20 1 0 3 -9 3 -20z m1741 -175 c-34 -20 -46 -23 -52
-13 -11 18 0 26 41 31 19 2 40 4 45 5 6 1 -10 -10 -34 -23z m113 -94 c3 -5 3
-43 0 -84 -6 -69 -9 -76 -36 -92 -16 -9 -58 -39 -93 -66 l-64 -48 -6 29 c-6
25 -2 35 24 59 31 29 40 51 21 51 -21 0 -7 22 56 90 63 67 86 81 98 61z m-664
-64 c0 -23 -16 -47 -32 -47 -4 0 -13 10 -19 22 -10 18 -8 24 7 35 27 20 44 16
44 -10z m-270 -329 c27 -18 49 -36 47 -39 -1 -4 -28 -28 -61 -54 -46 -38 -60
-45 -67 -34 -6 10 -9 6 -9 -13 0 -15 -4 -30 -10 -33 -15 -9 -12 -25 5 -25 10
0 15 -10 15 -34 l0 -34 -36 17 -36 18 -1 90 c-1 87 0 92 32 132 18 23 41 41
52 41 11 0 42 -15 69 -32z m1080 -98 c0 -5 -9 -10 -21 -10 -11 0 -17 5 -14 10
3 6 13 10 21 10 8 0 14 -4 14 -10z m-1024 -39 c-16 -18 -66 -35 -66 -22 0 7
73 49 79 44 2 -1 -4 -11 -13 -22z m-56 -48 c0 -12 -48 -61 -54 -56 -11 11 -6
61 7 66 13 4 47 -3 47 -10z m-845 -53 c4 -6 2 -16 -3 -23 -11 -14 -35 -97 -30
-103 2 -2 28 3 58 11 54 14 55 14 80 -11 l25 -25 -23 -19 c-22 -18 -24 -18
-65 0 -23 11 -50 20 -59 20 -10 0 -18 5 -18 11 0 6 -7 9 -15 5 -15 -6 -16 14
0 116 6 42 9 46 26 38 10 -6 21 -15 24 -20z m2020 -52 c11 -29 21 -56 23 -60
3 -7 -58 -42 -62 -36 -2 2 -11 27 -20 56 -20 62 -14 92 17 92 18 0 26 -11 42
-52z m243 -30 c14 -14 16 -38 4 -38 -5 0 -14 11 -20 25 -12 26 -4 33 16 13z
m-2443 -48 c-7 -11 -35 -14 -35 -4 0 3 5 15 11 26 10 19 12 20 21 5 5 -10 6
-22 3 -27z m1295 -61 c0 -5 -10 -9 -21 -9 -18 0 -19 2 -9 15 12 15 30 12 30
-6z m-1060 1 c8 -5 11 -12 7 -16 -4 -4 -15 0 -24 9 -18 18 -8 23 17 7z m1318
-238 c-1 -4 -12 -29 -23 -55 -11 -26 -22 -46 -25 -44 -3 1 -33 13 -68 27 -34
14 -62 28 -62 31 0 9 78 37 115 42 54 7 67 7 63 -1z m179 -23 c115 -37 152
-89 63 -89 -38 0 -50 4 -50 15 0 17 -35 55 -50 55 -5 0 -32 -21 -61 -46 -28
-25 -53 -44 -55 -42 -2 2 2 34 8 71 l11 67 36 -6 c20 -3 64 -15 98 -25z m-438
-52 c6 -8 8 -17 5 -20 -9 -8 -44 11 -44 23 0 15 26 12 39 -3z m-1278 -56 c-6
-11 -12 -35 -12 -53 -1 -29 -2 -28 -11 15 -9 41 -8 51 8 69 16 17 20 18 22 5
2 -9 -2 -25 -7 -36z m-4 -133 c-3 -7 -5 -2 -5 12 0 14 2 19 5 13 2 -7 2 -19 0
-25z m-5931 -289 c3 -6 2 -15 -4 -21 -6 -6 -11 -2 -15 11 -5 22 7 29 19 10z
m8852 -39 c31 -37 40 -60 25 -60 -5 0 -24 5 -43 10 -34 9 -35 11 -32 50 2 22
7 40 11 40 3 0 21 -18 39 -40z m-6738 -95 c0 -7 -8 -20 -19 -29 -18 -16 -19
-15 -25 23 -3 21 -9 48 -13 58 -4 13 3 10 25 -11 18 -17 32 -35 32 -41z m4360
37 c0 -5 -11 -19 -26 -33 -22 -21 -24 -21 -18 -4 13 36 44 62 44 37z m-155
-41 c3 -5 1 -12 -4 -15 -12 -8 -41 3 -41 15 0 12 37 12 45 0z m30 -43 c33 -15
32 -23 -5 -38 -31 -13 -65 -7 -55 10 3 5 -2 10 -12 10 -17 1 -17 2 1 15 24 18
37 19 71 3z m-3900 -29 c4 -6 5 -13 2 -16 -8 -7 -87 7 -87 16 0 12 78 12 85 0z
m2040 -79 c3 -11 22 -42 41 -69 19 -28 34 -55 34 -60 0 -32 -97 -16 -143 23
-34 28 -27 73 16 104 39 27 44 27 52 2z m1053 -71 c28 -37 29 -42 16 -67 -26
-50 -16 -64 24 -36 32 22 42 10 38 -44 -3 -38 -9 -50 -29 -62 -22 -12 -27 -12
-43 0 -30 26 -44 76 -44 165 0 47 2 85 4 85 2 0 18 -18 34 -41z m543 -10 l21
-42 -21 -18 c-12 -11 -16 -14 -11 -7 14 17 12 28 -4 22 -9 -3 -15 5 -20 27
-14 72 3 81 35 18z m-6557 -101 c-6 -19 -8 -18 -39 12 -33 32 -33 32 -17 67
l16 34 24 -46 c14 -29 20 -54 16 -67z m6481 76 c18 -44 19 -64 3 -68 -17 -4
-69 -22 -89 -30 -11 -5 -20 4 -34 34 -10 22 -16 42 -14 44 8 7 104 55 111 56
4 0 15 -16 23 -36z m-6505 -125 c0 -3 -12 -4 -27 -2 -54 9 -56 11 -36 38 l18
24 22 -27 c13 -15 23 -30 23 -33z m3834 42 c12 -5 16 -10 9 -14 -11 -7 -63 8
-63 18 0 7 31 5 54 -4z m1287 -10 c13 -11 22 -22 19 -24 -3 -3 -18 6 -35 19
-16 13 -25 24 -19 24 7 0 22 -9 35 -19z m-34 -40 c14 -8 9 -9 -22 -7 -22 2
-38 6 -35 9 3 4 -4 13 -15 22 -18 14 -17 14 17 1 21 -8 46 -19 55 -25z m-388
5 c9 -11 8 -18 -4 -30 -22 -21 -31 -20 -51 7 -15 21 -15 15 1 -24 5 -14 -5
-18 -70 -24 -42 -4 -78 -5 -80 -3 -3 2 5 18 18 35 18 26 31 32 82 41 87 14 91
13 104 -2z m-922 -47 c90 -44 98 -52 108 -90 6 -23 3 -28 -21 -36 -18 -6 -44
-5 -78 4 -28 7 -67 13 -88 13 -69 0 -49 16 72 57 9 4 -6 15 -41 32 -62 28 -89
48 -89 63 0 16 47 1 137 -43z m2731 -14 c10 -9 5 -15 -28 -28 -39 -15 -40 -15
-40 7 0 12 -5 27 -12 34 -16 16 62 4 80 -13z m139 19 c-3 -3 -12 -4 -19 -1 -8
3 -5 6 6 6 11 1 17 -2 13 -5z m-1457 -35 c19 -45 -1 -59 -29 -20 -12 17 -19
35 -16 41 12 19 33 10 45 -21z m1178 -28 c7 0 11 -5 7 -10 -7 -12 -58 -7 -62
6 -2 6 7 9 19 8 13 -1 29 -3 36 -4z m-1474 -16 c20 -15 20 -15 0 -30 -28 -21
-34 -18 -34 15 0 33 6 36 34 15z m1543 -15 c-1 -22 -14 -25 -37 -10 -13 9 -13
11 0 20 24 16 39 12 37 -10z m-3066 -91 l25 -101 -24 -9 c-45 -17 -53 -12 -46
29 5 32 2 43 -20 69 -30 36 -30 34 -12 78 10 22 22 35 34 35 15 0 23 -18 43
-101z m-3701 -10 c-6 -10 -17 -19 -25 -19 -20 0 -19 39 2 62 17 19 17 19 25
-2 4 -12 3 -30 -2 -41z m3014 52 c3 -4 -3 -16 -14 -26 -19 -17 -20 -17 -20 2
0 29 22 45 34 24z m93 3 c-3 -3 -12 -4 -19 -1 -8 3 -5 6 6 6 11 1 17 -2 13 -5z
m3690 -29 l22 -35 -39 -6 c-22 -4 -40 -9 -40 -13 0 -3 9 -21 20 -39 20 -33 19
-52 -2 -52 -7 0 -22 -9 -34 -21 -31 -30 -58 -12 -73 47 -7 25 -10 49 -7 51 2
3 23 7 45 10 46 6 45 6 30 35 -10 18 -8 24 12 39 33 25 41 23 66 -16z m-1545
-38 c-3 -56 -1 -67 22 -94 29 -35 33 -48 11 -39 -18 7 -20 -5 -3 -22 9 -9 6
-12 -14 -12 -39 0 -50 23 -54 112 -4 76 -3 84 18 100 13 10 23 18 23 18 0 0
-1 -28 -3 -63z m-1140 -34 c68 -35 86 -48 81 -61 -5 -14 -3 -15 7 -5 19 18 40
-2 40 -39 0 -23 -4 -29 -16 -24 -8 3 -68 13 -132 21 -111 14 -118 16 -144 47
-37 43 -51 88 -39 122 l10 26 53 -21 c29 -11 92 -41 140 -66z m1848 7 c24 -47
24 -50 5 -50 -19 0 -65 29 -65 40 0 22 21 60 30 55 6 -4 19 -24 30 -45z m443
10 c7 0 21 -8 32 -17 19 -15 19 -15 -9 -9 -36 9 -60 32 -49 48 5 10 8 8 11 -4
2 -10 9 -18 15 -18z m-5063 16 c0 -2 -9 -6 -20 -9 -11 -3 -18 -1 -14 4 5 9 34
13 34 5z m275 -78 c84 -73 135 -113 135 -105 0 3 -21 40 -46 83 -44 75 -47
102 -9 88 9 -4 28 -31 41 -61 24 -55 32 -61 51 -42 8 8 8 -2 1 -37 -6 -27 -12
-51 -14 -53 -1 -1 -51 16 -109 39 -58 22 -129 44 -156 47 -42 5 -49 9 -49 28
0 12 7 39 15 59 21 49 36 44 140 -46z m4045 51 c9 -16 9 -28 0 -50 -7 -16 -15
-29 -19 -29 -4 0 -17 20 -29 44 -19 41 -20 45 -4 49 33 9 41 7 52 -14z m1688
-11 c-2 -6 -10 -14 -16 -16 -7 -2 -10 2 -6 12 7 18 28 22 22 4z m-282 -56
c-18 -16 -18 -16 -6 6 6 13 14 21 18 18 3 -4 -2 -14 -12 -24z m-3141 -23 c5
-6 3 -9 -7 -9 -24 0 -48 11 -48 22 0 10 39 1 55 -13z m1775 -10 c0 -5 -7 -9
-15 -9 -9 0 -12 6 -9 15 6 15 24 11 24 -6z m-4290 -20 c0 -18 -2 -20 -15 -9
-13 11 -13 15 -3 21 18 12 18 12 18 -12z m4245 -18 c-3 -6 -11 -11 -17 -11 -6
0 -6 6 2 15 14 17 26 13 15 -4z m-95 -16 c13 -14 22 -26 19 -28 -8 -7 -129 35
-129 44 0 5 19 9 43 9 33 0 49 -6 67 -25z m-50 -28 c36 -16 49 -26 41 -32 -8
-4 -17 -2 -22 6 -6 11 -11 11 -21 1 -9 -9 -17 -7 -35 10 -20 19 -30 38 -19 38
2 0 27 -11 56 -23z m758 -80 c20 -23 -10 -42 -40 -25 -13 7 -24 14 -26 15 -2
1 1 11 8 22 12 23 34 18 58 -12z m-5368 -32 c0 -48 12 -57 32 -25 16 26 20 25
67 -7 44 -31 57 -63 39 -92 -10 -17 -20 -19 -62 -14 -57 6 -76 23 -76 65 0 15
-4 28 -9 28 -16 0 -32 61 -20 76 20 25 29 15 29 -31z m91 14 c9 -18 9 -19 -10
-7 -12 7 -21 19 -21 26 0 17 17 7 31 -19z m5149 16 c0 -3 -9 -24 -20 -45 -20
-38 -20 -40 -2 -40 29 0 44 -43 25 -70 -15 -21 -16 -21 -50 41 l-35 63 34 28
c32 26 48 34 48 23z m-3950 -70 c0 -24 -22 -65 -36 -65 -34 0 -41 10 -30 45 9
29 16 35 38 35 18 0 28 -5 28 -15z m2460 -17 c78 -30 75 -43 -12 -52 -37 -4
-58 -3 -58 4 0 5 -6 10 -13 10 -16 0 -20 42 -4 52 13 9 36 6 87 -14z m1840 2
c17 -9 18 -14 8 -35 -6 -14 -14 -25 -17 -25 -15 1 -30 18 -36 43 -8 30 9 36
45 17z m-393 -147 c-12 -24 -24 -43 -28 -43 -6 0 -19 84 -19 132 l0 28 34 -37
34 -37 -21 -43z m-220 31 c26 -40 43 -55 43 -36 0 4 11 21 24 37 l24 30 -21
-78 -22 -78 -80 7 c-44 3 -94 13 -111 21 -47 21 -81 63 -86 105 -3 33 -1 37
25 42 62 12 65 10 61 -41 -3 -36 -2 -43 5 -28 5 11 10 32 10 47 1 24 5 27 39
30 45 4 54 -2 89 -58z m-6287 47 c0 -5 -7 -12 -16 -15 -14 -5 -15 -4 -4 9 14
17 20 19 20 6z m494 -28 c-7 -32 -21 -50 -30 -41 -11 12 7 68 22 68 11 0 13
-7 8 -27z m4501 -9 c4 -26 2 -39 -6 -45 -21 -12 -29 -1 -29 42 0 51 25 53 35
3z m985 -15 c0 -17 -4 -28 -10 -24 -5 3 -10 17 -10 31 0 13 5 24 10 24 6 0 10
-14 10 -31z m-3950 -33 c16 -25 30 -49 30 -54 0 -5 -14 -15 -30 -22 -17 -7
-46 -31 -66 -53 -33 -39 -38 -41 -101 -45 l-67 -5 26 31 c40 48 63 117 50 147
-12 26 -11 28 58 38 62 10 69 8 100 -37z m-2204 -64 c-22 -64 -77 -157 -167
-277 -40 -55 -82 -112 -91 -125 l-18 -25 6 30 c10 50 65 217 87 260 35 71 86
132 140 168 28 19 53 31 55 26 2 -5 -4 -30 -12 -57z m705 54 c24 -8 57 -17 73
-21 27 -6 28 -7 11 -25 -18 -19 -19 -19 -76 12 -33 17 -59 35 -59 39 0 11 -1
12 51 -5z m6306 -17 c-3 -12 0 -22 9 -26 9 -3 12 -13 8 -29 -4 -13 -2 -30 4
-37 6 -8 6 -21 0 -37 -9 -24 -10 -22 -27 28 -10 28 -25 60 -34 70 -24 27 -21
40 11 45 15 2 29 5 31 6 2 0 1 -8 -2 -20z m-2717 -8 c0 -8 -92 -73 -97 -67 -1
1 1 15 5 31 5 19 17 32 33 36 35 10 59 10 59 0z m1515 -31 c3 -5 -1 -10 -9
-10 -9 0 -16 5 -16 10 0 6 4 10 9 10 6 0 13 -4 16 -10z m825 -10 c-8 -5 -17
-7 -19 -4 -3 3 1 9 9 14 8 5 17 7 19 4 3 -3 -1 -9 -9 -14z m-6910 -5 c10 -13
9 -15 -9 -15 -12 0 -21 6 -21 15 0 8 4 15 9 15 5 0 14 -7 21 -15z m3504 -4 c9
-10 14 -25 10 -35 -8 -22 -21 -20 -36 4 -7 11 -16 20 -19 20 -4 0 -38 -31 -75
-70 l-67 -70 -34 51 c-19 28 -33 52 -31 53 7 6 204 65 219 65 9 1 23 -7 33
-18z m1068 -53 c3 -20 -67 -136 -82 -137 -9 -1 -35 93 -32 115 2 14 14 25 35
32 54 17 75 14 79 -10z m-279 -5 c-7 -2 -19 -2 -25 0 -7 3 -2 5 12 5 14 0 19
-2 13 -5z m2242 -10 c-34 -5 -45 -18 -45 -50 0 -13 -4 -23 -10 -23 -5 0 -10 4
-10 9 0 5 -3 21 -6 37 -5 29 -5 29 48 30 29 1 40 -1 23 -3z m-321 -12 c3 -5
-8 -27 -24 -50 -21 -29 -37 -41 -55 -41 -30 0 -31 6 -6 44 26 39 74 66 85 47z
m-2968 -68 c-2 -2 -16 3 -31 13 l-27 18 24 17 c23 18 23 18 31 -13 5 -16 6
-32 3 -35z m1135 43 c10 -21 7 -30 -16 -60 -26 -34 -31 -36 -83 -36 l-55 0 19
21 c11 13 17 32 16 49 -3 25 1 30 25 36 15 3 33 7 38 9 27 9 46 3 56 -19z
m-901 8 c0 -3 -9 -17 -19 -30 -11 -14 -29 -53 -41 -88 l-21 -63 -55 -13 c-72
-18 -76 -28 -9 -22 30 2 55 2 55 -1 0 -6 -111 -40 -115 -35 -5 6 -23 183 -19
187 2 2 36 -20 75 -49 l72 -52 -30 38 c-49 63 -49 61 24 98 69 36 83 41 83 30z
m2800 -28 c0 -7 10 -26 22 -41 l21 -27 -44 7 c-24 4 -45 8 -47 10 -5 4 33 65
41 65 4 0 7 -6 7 -14z m965 -23 c28 -14 35 -22 31 -38 -3 -11 -6 -32 -6 -47 0
-18 -5 -28 -15 -28 -8 0 -15 5 -15 11 0 7 -9 9 -24 5 -21 -5 -24 -2 -30 34 -5
35 5 80 19 80 2 0 20 -8 40 -17z m-2610 -43 c-21 -23 -45 -26 -45 -6 0 8 12
17 28 19 15 2 29 5 31 6 2 0 -4 -8 -14 -19z m-110 -71 c23 -9 26 -13 13 -16
-10 -3 -18 -9 -18 -14 0 -5 -20 -9 -45 -9 -42 0 -45 2 -45 26 0 14 5 34 11 46
l11 20 21 -20 c12 -12 36 -26 52 -33z m2719 -26 c11 -43 -22 -55 -77 -27 -30
16 -30 17 -10 25 11 4 24 12 28 18 3 6 17 11 30 11 16 0 25 -7 29 -27z m-6737
-19 c-3 -3 -12 -4 -19 -1 -8 3 -5 6 6 6 11 1 17 -2 13 -5z m-952 -14 c3 -5 -1
-10 -9 -10 -8 0 -18 5 -21 10 -3 6 1 10 9 10 8 0 18 -4 21 -10z m3863 -193 c6
-7 13 -29 17 -51 l8 -39 -64 37 c-35 20 -69 40 -75 44 -6 4 -14 28 -17 54 l-6
47 64 -40 c35 -22 68 -46 73 -52z m-1993 39 c33 -14 49 -46 23 -46 -19 0 -78
38 -78 50 0 14 14 13 55 -4z m1698 -85 c27 -13 60 -38 75 -57 20 -25 29 -30
39 -22 10 8 13 6 13 -9 0 -18 -6 -19 -77 -15 -43 2 -100 12 -128 22 -27 10
-102 36 -165 57 -107 35 -113 38 -80 44 19 3 89 6 155 5 103 -2 128 -6 168
-25z m362 9 c3 -5 3 -15 -1 -21 -6 -11 -23 6 -24 24 0 10 18 9 25 -3z m3101
-16 c-11 -7 -22 -12 -25 -9 -2 3 4 12 15 19 10 8 21 12 24 9 3 -2 -4 -11 -14
-19z m-1166 -32 c0 -15 -2 -15 -10 -2 -13 20 -13 33 0 25 6 -3 10 -14 10 -23z
m-5280 -76 c0 -86 12 -123 73 -228 51 -90 69 -164 69 -288 0 -92 -29 -243 -60
-313 -40 -90 -117 -152 -233 -188 -84 -26 -88 -24 -37 20 52 46 97 127 129
231 28 91 31 207 10 423 -12 120 -13 168 -3 250 21 181 52 237 52 93z m7149
62 c8 -13 20 -32 27 -43 12 -19 9 -26 -27 -69 -22 -27 -44 -56 -49 -65 -12
-22 -19 -12 -35 47 l-13 51 37 50 c20 28 38 51 41 51 3 0 11 -10 19 -22z
m-895 -78 l15 -30 -31 21 c-23 17 -27 24 -16 30 7 5 14 9 15 9 1 0 8 -14 17
-30z m-6434 -90 c0 -5 -2 -10 -4 -10 -3 0 -8 5 -11 10 -3 6 -1 10 4 10 6 0 11
-4 11 -10z m6828 -30 c46 -33 60 -51 79 -97 13 -31 22 -57 20 -59 -1 -1 -29 3
-62 10 l-60 12 1 43 1 42 -21 -25 -21 -25 -40 35 -40 35 40 34 c22 19 41 34
43 35 2 0 29 -18 60 -40z m-6840 1 c25 -7 42 -18 42 -27 0 -11 -7 -13 -26 -8
-19 5 -25 3 -20 -4 4 -7 -8 -17 -30 -27 -49 -20 -54 -19 -55 13 -1 23 -2 22
-8 -8 -5 -32 -9 -35 -43 -38 -24 -2 -35 -7 -32 -16 3 -7 -11 -19 -31 -29 l-36
-17 -69 38 -69 38 77 14 c84 16 88 16 117 5 16 -7 18 -6 7 6 -10 11 0 19 55
45 38 17 70 30 73 29 3 -2 24 -8 48 -14z m3476 -8 c-3 -10 -11 -67 -19 -128
l-14 -110 3 105 c1 60 7 115 14 128 15 26 22 29 16 5z m3280 -112 c-3 -3 -16
9 -30 27 -14 18 -32 32 -40 32 -9 0 -12 5 -8 11 4 7 21 -3 45 -27 21 -21 36
-40 33 -43z m-4746 19 c6 0 12 -4 12 -10 0 -5 -18 -10 -40 -10 -38 0 -49 8
-33 24 4 4 17 5 28 2 11 -3 26 -6 33 -6z m128 -36 c24 -14 44 -31 44 -37 0 -7
-4 -6 -9 2 -6 9 -16 11 -27 7 -16 -6 -16 -8 -4 -16 12 -8 10 -10 -10 -10 -23
0 -90 54 -90 72 0 17 53 7 96 -18z m189 -94 c3 -5 -1 -10 -10 -10 -9 0 -13 5
-10 10 3 6 8 10 10 10 2 0 7 -4 10 -10z m2010 -50 c-28 -12 -55 -12 -55 0 0 6
17 10 38 9 30 0 33 -2 17 -9z m-797 -85 c-8 -19 -14 -22 -20 -13 -14 22 -9 38
12 38 17 0 18 -3 8 -25z m686 -27 c4 -21 3 -38 -1 -38 -30 1 -52 53 -32 76 16
19 25 8 33 -38z m-853 -105 c-48 -143 -105 -276 -142 -333 -22 -34 -42 -60
-45 -58 -2 3 33 88 79 189 46 101 92 206 102 233 26 68 31 42 6 -31z m4553 31
c81 -37 75 -51 -37 -95 -63 -25 -94 -33 -99 -26 -7 12 60 147 73 147 4 0 32
-12 63 -26z m-525 -20 c3 -2 -7 -16 -21 -31 -23 -22 -29 -24 -42 -13 -14 11
-16 8 -16 -18 0 -29 -1 -30 -72 -40 -40 -6 -74 -9 -76 -7 -2 2 20 35 49 73
l52 70 60 -15 c34 -7 63 -16 66 -19z m1689 -66 c-2 -48 -7 -63 -18 -63 -9 0
-17 15 -22 43 -4 23 -10 46 -13 52 -6 10 22 29 43 30 10 0 12 -16 10 -62z
m-1593 32 c3 -5 2 -10 -4 -10 -5 0 -13 5 -16 10 -3 6 -2 10 4 10 5 0 13 -4 16
-10z m1494 -87 l20 -51 -26 -17 c-34 -22 -43 -9 -43 66 0 88 15 89 49 2z
m-4274 7 c19 -37 19 -50 0 -50 -16 0 -47 59 -39 72 10 15 24 7 39 -22z m2838
3 c7 -36 5 -37 -32 -18 -33 16 -39 30 -18 38 29 12 45 6 50 -20z m-1270 -63
c4 -17 2 -18 -15 -9 -17 9 -18 13 -7 20 8 5 15 9 15 9 1 0 4 -9 7 -20z m-6421
-96 c5 -3 4 -12 -3 -20 -6 -7 -16 -11 -22 -7 -6 3 -7 1 -3 -5 3 -6 -7 -31 -22
-56 l-29 -45 -36 37 c-36 37 -49 86 -29 106 7 8 129 -1 144 -10z m9489 -241
c13 -16 12 -17 -3 -4 -10 7 -18 15 -18 17 0 8 8 3 21 -13z m-5741 -63 c0 -11
-5 -18 -12 -16 -7 3 -26 7 -41 10 -37 9 -25 26 19 26 27 0 34 -4 34 -20z
m3676 -64 c10 -43 -8 -57 -41 -32 -19 14 -19 15 -1 35 25 27 34 26 42 -3z
m450 -853 c18 -24 17 -36 -1 -29 -8 3 -15 1 -15 -3 0 -9 -67 2 -77 13 -3 3 -3
12 0 21 9 22 76 20 93 -2z m-312 -48 c16 -12 17 -18 8 -27 -9 -9 -12 -8 -12 6
0 15 -6 17 -42 11 -40 -5 -42 -5 -24 10 24 19 45 19 70 0z m2027 -17 l23 -31
-38 6 c-21 3 -41 9 -44 12 -4 4 26 45 34 45 1 0 13 -14 25 -32z m-5856 -8 c3
-5 1 -10 -4 -10 -6 0 -11 5 -11 10 0 6 2 10 4 10 3 0 8 -4 11 -10z m115 -17
c-1 -20 -29 -43 -44 -37 -19 7 -20 16 -4 32 13 13 48 16 48 5z m170 -32 c-10
-20 -30 -37 -30 -26 0 11 25 45 33 45 4 0 3 -9 -3 -19z m5615 -22 c11 -17 0
-20 -21 -4 -17 13 -17 14 -2 15 9 0 20 -5 23 -11z m-5833 -51 c-4 -29 -6 -30
-18 -13 -20 28 -18 54 4 48 14 -3 17 -11 14 -35z m488 -27 c0 -9 -52 -51 -63
-51 -7 0 -17 43 -11 52 7 11 74 10 74 -1z m31 -302 c48 -38 49 -49 5 -49 -31
0 -34 3 -44 40 -5 22 -8 40 -5 40 3 0 23 -14 44 -31z m-157 -220 c-8 -13 -21
-11 -27 5 -4 10 0 12 14 9 10 -3 16 -9 13 -14z m416 -43 c0 -3 -4 -8 -10 -11
-5 -3 -10 -1 -10 4 0 6 5 11 10 11 6 0 10 -2 10 -4z m337 -127 c16 -16 4 -39
-20 -39 -16 0 -18 3 -10 11 6 6 9 18 6 25 -6 17 9 18 24 3z m-157 -14 c19 -23
8 -26 -20 -5 -19 15 -21 20 -9 20 9 0 22 -7 29 -15z m747 -659 c1 0 4 -13 8
-27 5 -21 1 -31 -25 -52 l-31 -26 23 -14 c13 -8 32 -19 43 -25 19 -11 18 -11
-7 -12 -22 0 -36 12 -69 55 l-42 56 28 29 c21 22 35 28 49 24 12 -4 22 -7 23
-8z"/>
<path d="M10515 9281 l-17 -51 -56 5 -57 4 50 -13 c52 -13 53 -14 41 -76 -6
-37 3 -24 24 33 8 23 15 27 52 28 43 1 43 1 10 9 -45 11 -47 14 -33 61 18 60
6 59 -14 0z"/>
<path d="M10060 9245 c-38 -39 -51 -43 -70 -19 -8 8 -23 20 -34 26 -13 6 -5
-6 17 -30 23 -23 35 -42 28 -46 -5 -4 -20 -21 -32 -39 l-22 -32 38 37 39 37
40 -31 41 -31 -37 38 -37 38 36 44 c43 52 39 56 -7 8z"/>
<path d="M11021 9060 c-4 -94 -12 -206 -17 -228 l-4 -22 -51 26 c-28 14 -53
23 -55 21 -10 -9 8 -33 41 -56 19 -13 35 -27 35 -31 0 -4 -43 -36 -95 -70
-107 -71 -131 -94 -58 -56 26 14 78 39 115 55 l68 30 4 -22 c3 -12 8 -76 13
-142 l7 -120 8 85 c5 47 12 110 16 141 l7 56 119 -58 c66 -32 121 -57 123 -55
2 1 -47 36 -107 76 -61 41 -110 77 -110 80 0 3 49 39 110 80 60 40 108 75 106
77 -2 2 -58 -23 -124 -56 l-120 -60 -6 62 c-16 175 -23 231 -25 187z"/>
<path d="M8731 9015 c-1 -6 8 -57 19 -115 11 -58 20 -111 20 -119 0 -11 -23
-12 -127 -6 -71 4 -125 4 -122 1 3 -3 59 -13 125 -22 65 -8 120 -16 121 -18 3
-2 -51 -166 -73 -221 -19 -50 12 2 56 95 27 56 51 104 54 107 3 3 47 -26 98
-64 132 -98 134 -98 25 8 l-98 94 106 73 c58 41 105 76 105 79 0 3 -10 -1 -22
-9 -46 -30 -195 -108 -206 -108 -6 0 -13 12 -17 28 -9 42 -63 208 -64 197z"/>
<path d="M10186 9000 c4 -8 17 -28 29 -45 40 -54 40 -54 -19 -81 -31 -14 -56
-27 -56 -29 0 -2 26 5 57 16 31 10 60 16 64 12 4 -5 10 -30 12 -58 l3 -50 2
59 2 59 30 -7 c80 -16 92 -15 37 5 l-57 21 31 56 c30 56 19 50 -31 -16 l-20
-27 -46 50 c-25 28 -42 43 -38 35z"/>
<path d="M9510 8978 c0 -4 11 -38 25 -74 14 -37 24 -68 22 -70 -1 -2 -39 -10
-82 -18 l-80 -15 84 3 84 4 -7 -52 c-3 -29 -8 -68 -11 -87 -4 -29 -4 -31 4 -9
5 14 17 51 26 82 l16 58 69 -35 c93 -47 98 -44 17 10 -37 25 -67 49 -67 52 0
4 26 34 58 67 l57 59 -65 -51 c-36 -29 -68 -52 -72 -52 -4 0 -23 30 -42 68
-19 37 -35 64 -36 60z"/>
<path d="M10771 8911 c26 -20 64 -41 74 -41 12 0 -21 27 -52 44 -42 21 -51 20
-22 -3z"/>
<path d="M2840 8637 c0 -4 7 -24 15 -44 20 -48 20 -50 -20 -69 -46 -22 -39
-29 8 -9 l37 15 20 -40 c25 -50 35 -52 15 -4 -20 50 -20 51 23 73 44 24 36 27
-13 6 l-35 -14 -25 47 c-13 26 -24 43 -25 39z"/>
<path d="M11705 8590 c3 -14 8 -35 11 -47 5 -19 -1 -26 -37 -43 -24 -11 -35
-18 -24 -15 11 2 32 7 47 11 25 6 30 2 48 -37 11 -24 18 -35 15 -24 -21 69
-20 74 26 95 24 11 33 18 19 15 -14 -3 -37 -8 -52 -11 -20 -5 -28 -2 -28 7 -1
8 -7 28 -16 44 -12 26 -14 27 -9 5z"/>
<path d="M7756 8437 c-16 -56 -32 -106 -36 -111 -5 -4 -56 0 -115 9 -59 9
-109 15 -111 12 -2 -2 40 -16 94 -31 54 -15 104 -31 111 -35 10 -7 10 -29 -3
-116 -9 -59 -15 -110 -12 -112 2 -2 16 41 31 96 16 55 31 105 35 111 4 7 38 6
114 -6 59 -8 110 -13 113 -11 2 3 -11 8 -29 12 -18 4 -68 18 -111 32 l-78 24
5 32 c20 124 28 188 24 192 -2 3 -17 -41 -32 -98z"/>
<path d="M9338 8523 c-15 -17 -14 -43 1 -43 7 0 31 43 31 55 0 11 -18 4 -32
-12z"/>
<path d="M3368 8414 l-36 -37 -49 27 c-40 23 -44 24 -23 5 14 -12 34 -27 44
-35 18 -12 18 -14 -13 -49 -43 -50 -39 -57 8 -11 l39 38 41 -21 c50 -26 53
-20 6 12 l-35 24 30 38 c28 35 34 45 27 45 -1 0 -19 -16 -39 -36z"/>
<path d="M11977 8408 c-3 -13 -9 -49 -12 -81 -4 -31 -10 -59 -14 -61 -3 -2
-32 6 -64 19 -97 40 -106 38 -24 -5 52 -27 75 -45 71 -53 -4 -7 -25 -34 -47
-60 -22 -26 -38 -50 -35 -52 2 -3 28 20 58 51 l54 55 41 -65 c57 -91 64 -93
21 -9 -20 40 -36 76 -36 80 0 5 35 18 78 30 74 22 68 23 -42 7 l-49 -7 6 87
c7 84 4 108 -6 64z"/>
<path d="M8230 8293 c-18 -54 -36 -103 -39 -110 -6 -11 -38 6 -188 99 -62 38
-33 8 62 -63 52 -39 95 -75 95 -78 0 -4 -40 -42 -90 -85 -49 -43 -90 -80 -90
-83 0 -2 46 27 102 66 56 38 104 68 108 66 3 -2 26 -51 50 -109 24 -58 46
-104 48 -102 2 2 -10 49 -27 104 -17 54 -31 106 -31 115 0 12 19 16 98 22 151
10 160 20 19 23 -116 2 -128 4 -123 20 16 54 47 204 43 208 -2 2 -19 -40 -37
-93z"/>
<path d="M12635 8337 l40 -35 -34 -36 c-42 -44 -37 -46 14 -6 l37 30 47 -31
46 -31 -38 37 -39 37 33 34 c18 19 28 34 23 34 -6 0 -19 -9 -29 -20 -27 -30
-52 -34 -83 -12 -50 35 -57 34 -17 -1z"/>
<path d="M6906 8305 c-17 -44 -18 -45 -64 -46 l-47 -1 43 -10 c40 -9 43 -12
38 -34 -16 -66 -16 -77 1 -37 24 55 26 57 81 56 l47 -1 -47 11 c-51 11 -53 14
-38 66 14 51 6 48 -14 -4z"/>
<path d="M5295 8178 c-15 -62 -29 -116 -32 -120 -2 -4 -31 6 -65 23 -43 22
-64 27 -71 20 -11 -11 1 -16 31 -12 6 1 12 -4 12 -12 0 -8 16 -22 35 -33 19
-10 35 -21 35 -24 0 -3 -39 -48 -87 -100 -48 -52 -79 -88 -68 -79 11 9 56 46
100 83 93 77 80 81 152 -57 25 -48 47 -86 49 -84 2 2 -16 53 -40 113 l-44 109
124 24 c68 13 123 25 121 27 -1 2 -57 0 -122 -5 -66 -5 -122 -7 -124 -5 -2 2
4 55 13 120 10 64 15 118 13 120 -2 3 -17 -46 -32 -108z"/>
<path d="M6443 8258 l-32 -31 -38 28 -38 28 33 -35 33 -35 -31 -38 c-41 -51
-37 -59 5 -11 33 37 35 38 57 22 57 -40 70 -45 36 -14 -21 20 -38 39 -38 43 0
5 11 23 26 42 31 41 28 42 -13 1z"/>
<path d="M3101 8234 c1 -21 5 -52 9 -69 5 -19 6 -6 3 35 -6 73 -14 94 -12 34z"/>
<path d="M4190 8165 c-41 -47 -78 -82 -84 -78 -6 4 -51 33 -101 65 l-90 59 87
-83 88 -83 -65 -97 c-36 -54 -63 -98 -61 -98 2 0 36 37 76 83 40 45 76 83 80
85 5 2 45 -21 91 -51 46 -29 91 -57 99 -62 13 -7 -41 44 -134 126 l-29 25 55
85 c69 107 70 109 65 109 -3 0 -37 -38 -77 -85z"/>
<path d="M5030 8156 c0 -2 16 -13 36 -25 36 -22 66 -29 49 -12 -11 11 -85 43
-85 37z"/>
<path d="M2965 8137 c17 -8 32 -13 34 -11 7 7 -3 12 -34 19 l-30 6 30 -14z"/>
<path d="M3190 8129 c-51 -14 -83 -29 -100 -47 -15 -16 -17 -19 -4 -9 23 19
39 23 29 7 -6 -9 79 -130 91 -130 6 0 4 3 -44 79 -39 61 -40 60 56 92 34 11
62 23 62 25 0 6 -6 5 -90 -17z"/>
<path d="M7405 7990 c-4 -77 -11 -143 -16 -145 -4 -3 -62 22 -129 55 -66 33
-120 58 -120 55 0 -2 42 -32 93 -66 157 -106 155 -84 14 -178 -67 -44 -119
-81 -114 -81 4 0 61 27 128 60 66 33 124 58 128 55 5 -2 12 -66 16 -140 4 -75
9 -135 10 -133 2 2 8 63 14 137 6 74 13 136 15 138 2 2 36 -12 75 -31 94 -48
188 -89 176 -78 -5 5 -58 42 -117 81 -60 39 -108 73 -108 76 0 3 48 37 108 76
163 109 162 111 -18 23 -62 -30 -114 -53 -116 -51 -3 2 -9 66 -15 143 -6 76
-12 140 -13 142 -2 2 -7 -60 -11 -138z"/>
<path d="M11475 7964 c-22 -64 -43 -117 -46 -119 -3 -2 -54 25 -112 60 -59 35
-107 62 -107 60 0 -2 45 -39 101 -81 l101 -76 -34 -29 c-18 -16 -61 -52 -95
-81 -34 -29 -60 -54 -58 -56 2 -2 49 28 105 67 l101 71 28 -62 c15 -35 38 -89
51 -120 13 -32 25 -56 27 -54 2 1 -13 56 -33 120 -20 65 -33 121 -29 124 4 4
59 12 123 17 l117 11 -122 8 c-91 6 -123 11 -123 21 0 7 11 61 25 120 14 59
24 109 23 111 -2 2 -21 -49 -43 -112z"/>
<path d="M6733 8050 c12 -47 42 -120 49 -120 14 0 8 24 -23 80 -17 30 -28 48
-26 40z"/>
<path d="M3031 8008 c-8 -13 -21 -34 -29 -48 -9 -14 1 -7 21 15 20 22 36 43
37 48 0 15 -16 6 -29 -15z"/>
<path d="M3688 7913 c-35 -64 -68 -118 -73 -119 -6 -2 -46 42 -90 97 -85 107
-112 134 -78 78 67 -109 123 -205 123 -210 0 -3 -40 -12 -90 -19 -49 -7 -90
-17 -90 -21 0 -5 43 -9 96 -9 73 0 95 -3 91 -12 -41 -104 -97 -252 -95 -254 2
-1 34 53 72 122 l68 124 67 -82 c115 -143 123 -146 46 -18 l-76 125 138 22
c75 13 142 25 147 27 6 3 -55 2 -136 -1 -82 -3 -148 -3 -148 0 0 6 47 134 79
215 11 28 19 52 17 52 -2 0 -33 -53 -68 -117z"/>
<path d="M6885 7989 c-70 -57 -78 -66 -68 -72 5 -3 36 21 68 53 33 33 57 60
55 60 -3 0 -28 -18 -55 -41z"/>
<path d="M6530 7977 c0 -3 7 -21 15 -40 14 -34 14 -36 -5 -42 -11 -4 -20 -11
-20 -16 0 -6 7 -6 19 1 27 14 26 15 46 -30 23 -50 32 -46 10 5 -8 21 -14 39
-13 40 2 1 18 10 36 19 44 22 36 31 -10 11 -36 -14 -36 -14 -48 16 -11 25 -30
49 -30 36z"/>
<path d="M4330 7957 c0 -4 25 -55 56 -113 41 -76 53 -108 45 -113 -7 -5 -58
-20 -114 -36 -56 -15 -105 -31 -110 -34 -4 -4 49 3 118 15 l125 21 1 -121 1
-121 17 112 c10 62 20 115 23 119 6 5 96 -23 163 -51 84 -36 67 -19 -32 32
-62 32 -113 60 -113 64 0 4 34 51 76 106 l76 98 -93 -92 -94 -92 -72 106 c-40
59 -73 104 -73 100z"/>
<path d="M6009 7862 c-3 -45 -8 -84 -11 -87 -3 -3 -35 4 -72 16 -38 11 -70 19
-72 16 -2 -2 27 -16 66 -31 38 -15 70 -30 70 -32 0 -3 -17 -31 -38 -62 -54
-80 -60 -93 -21 -47 19 22 45 53 59 68 l25 28 50 -65 c27 -36 51 -64 53 -62 1
2 -15 32 -37 66 -23 35 -41 66 -41 70 0 4 30 18 66 31 78 28 72 36 -11 14 -32
-8 -60 -13 -62 -11 -2 2 -7 41 -11 87 l-8 84 -5 -83z"/>
<path d="M6750 7900 c0 -5 7 -10 15 -10 8 0 15 5 15 10 0 6 -7 10 -15 10 -8 0
-15 -4 -15 -10z"/>
<path d="M6635 7890 c-30 -8 -30 -8 8 -9 23 -1 36 3 32 9 -3 6 -7 9 -8 9 -1
-1 -15 -5 -32 -9z"/>
<path d="M6690 7890 c0 -5 4 -10 9 -10 6 0 13 5 16 10 3 6 -1 10 -9 10 -9 0
-16 -4 -16 -10z"/>
<path d="M6850 7873 c0 -10 100 -66 106 -60 4 4 -92 67 -102 67 -2 0 -4 -3 -4
-7z"/>
<path d="M6770 7810 c0 -5 5 -10 11 -10 5 0 7 5 4 10 -3 6 -8 10 -11 10 -2 0
-4 -4 -4 -10z"/>
<path d="M6766 7765 c-3 -9 -6 -22 -5 -28 0 -7 5 -1 10 12 5 13 8 26 5 28 -2
2 -6 -3 -10 -12z"/>
<path d="M5312 7575 l-73 -84 -82 55 c-147 97 -151 96 -32 -7 47 -41 85 -77
85 -80 0 -4 -27 -49 -60 -100 l-61 -94 79 85 80 85 68 -46 c38 -25 83 -54 99
-64 29 -17 29 -16 -5 16 -19 19 -59 54 -87 79 l-53 46 61 93 c33 51 59 95 57
96 -2 2 -36 -34 -76 -80z"/>
<path d="M2080 7639 c0 -4 7 -23 16 -44 8 -20 14 -38 12 -40 -2 -1 -18 -10
-36 -19 -44 -23 -35 -31 11 -11 l37 15 24 -47 c28 -54 34 -54 11 0 -21 50 -20
54 23 76 43 23 36 27 -13 7 l-34 -15 -25 42 c-14 23 -25 39 -26 36z"/>
<path d="M8096 7615 c19 -68 18 -71 -31 -89 -58 -23 -54 -32 5 -11 49 17 47
18 72 -33 10 -20 16 -28 12 -17 -19 66 -18 71 23 88 27 12 30 15 11 12 -14 -3
-33 -8 -41 -11 -11 -4 -22 7 -36 38 -12 24 -19 34 -15 23z"/>
<path d="M6992 7444 c-17 -59 -34 -109 -36 -111 -3 -3 -50 2 -106 11 -111 18
-154 20 -100 4 19 -5 72 -21 118 -34 80 -25 83 -27 78 -52 -15 -79 -17 -112
-7 -112 5 0 18 26 27 58 10 31 21 60 24 65 4 4 52 1 108 -8 140 -21 143 -18
20 18 -58 18 -109 35 -113 39 -4 4 1 55 10 113 9 59 15 109 12 111 -2 2 -18
-44 -35 -102z"/>
<path d="M2608 7424 l-36 -37 -46 27 c-56 33 -59 28 -6 -11 l39 -29 -30 -37
c-17 -20 -26 -37 -21 -37 6 0 12 3 14 8 2 4 15 18 30 31 l27 24 37 -22 c48
-28 55 -21 9 10 -19 13 -35 27 -35 30 0 3 9 14 21 25 19 17 44 54 37 54 -2 0
-20 -16 -40 -36z"/>
<path d="M1166 7275 c-20 -36 -36 -68 -36 -70 0 -9 29 7 33 18 36 89 46 117
43 117 -2 0 -20 -29 -40 -65z"/>
<path d="M6140 7305 c-11 -33 -14 -35 -58 -36 l-47 -1 43 -10 c33 -7 42 -13
38 -26 -3 -9 -8 -30 -11 -47 -4 -23 -1 -20 15 15 l20 45 53 -2 52 -1 -48 11
-49 11 6 38 c8 48 1 49 -14 3z"/>
<path d="M2342 7240 c-1 -25 -5 -61 -8 -82 l-6 -36 -50 14 c-67 20 -83 12 -22
-10 27 -10 52 -22 56 -25 4 -4 -13 -38 -38 -76 l-45 -70 58 63 58 63 53 -67
c28 -37 52 -64 52 -61 0 3 -19 36 -41 72 -24 37 -38 70 -33 74 5 5 39 19 76
31 37 13 66 25 64 27 -2 2 -38 -5 -80 -15 l-76 -20 -5 32 c-3 17 -6 54 -8 81
l-3 50 -2 -45z"/>
<path d="M4150 7250 c-5 -35 -5 -35 -55 -33 l-50 1 48 -10 47 -11 1 -46 c1
-49 4 -47 13 10 l6 36 53 -3 52 -3 -52 11 c-50 10 -52 12 -55 47 l-4 36 -4
-35z"/>
<path d="M1831 7154 c34 -63 60 -116 58 -118 -2 -1 -57 -18 -122 -36 -64 -18
-116 -35 -114 -36 2 -2 52 5 112 16 60 11 115 20 123 20 13 0 14 -20 9 -131
-4 -73 -4 -130 -2 -127 2 2 12 58 21 124 9 65 20 122 23 126 3 3 60 -14 125
-38 66 -24 121 -43 122 -41 2 2 -50 29 -116 62 l-119 59 81 105 81 106 -95
-94 -95 -93 -73 106 c-40 58 -75 106 -77 106 -1 0 24 -52 58 -116z"/>
<path d="M5705 7130 c-37 -66 -70 -120 -73 -120 -4 0 -45 47 -92 105 -80 100
-109 131 -78 83 45 -71 130 -219 127 -222 -2 -2 -67 -13 -144 -25 -77 -12
-142 -24 -144 -27 -3 -3 63 -2 147 2 l152 7 -14 -39 c-8 -21 -32 -85 -54 -141
-22 -57 -38 -103 -37 -103 2 0 34 56 72 125 37 69 71 125 75 125 4 0 43 -45
88 -100 116 -143 116 -137 -3 53 -26 44 -47 80 -45 82 2 1 66 12 143 24 77 12
141 24 143 26 2 1 -62 1 -142 -2 -86 -4 -146 -2 -146 3 0 9 27 82 79 212 11
28 19 52 17 52 -3 0 -34 -54 -71 -120z"/>
<path d="M3457 7163 c-5 -53 -13 -83 -20 -83 -7 0 -41 9 -76 20 -36 11 -66 18
-68 16 -2 -2 22 -14 54 -26 103 -41 98 -33 55 -98 -69 -102 -65 -102 21 -1
l39 44 26 -35 c15 -19 40 -48 55 -65 22 -24 19 -16 -14 37 -22 37 -38 71 -35
77 4 5 36 19 72 31 80 27 78 37 -4 16 -94 -25 -91 -27 -94 67 l-3 82 -8 -82z"/>
<path d="M960 7179 c0 -7 14 -35 31 -62 19 -32 27 -53 20 -55 -6 -2 -9 -7 -6
-12 3 -4 -17 -14 -43 -21 l-47 -14 56 -3 56 -3 -49 -126 c-27 -69 -48 -127
-46 -129 2 -1 33 51 68 116 36 66 68 119 71 117 4 -1 41 -45 84 -97 42 -52 82
-99 88 -105 11 -11 -24 53 -89 160 -23 38 -41 72 -38 74 2 3 64 14 137 27
l132 22 -137 1 c-76 0 -138 5 -138 10 0 5 7 25 15 45 15 35 13 56 -4 56 -5 0
-19 -20 -32 -45 -13 -25 -26 -45 -29 -45 -3 1 -22 23 -43 50 -37 49 -57 62
-57 39z"/>
<path d="M6651 7100 c-4 -82 -19 -242 -24 -246 -3 -3 -60 22 -127 56 -67 34
-123 60 -125 58 -2 -2 48 -37 110 -78 63 -41 114 -78 114 -82 1 -4 -52 -43
-116 -88 -64 -44 -113 -80 -110 -80 4 0 62 27 128 61 67 33 124 58 127 55 5
-6 19 -153 23 -241 2 -60 8 -24 17 112 5 68 11 125 14 129 3 3 61 -22 128 -56
67 -34 124 -60 125 -58 2 2 -46 37 -106 78 -61 41 -111 80 -112 85 -1 6 50 45
113 88 63 42 111 77 107 77 -4 0 -62 -27 -128 -61 -67 -33 -124 -58 -127 -55
-3 4 -9 61 -14 129 -9 133 -15 172 -17 117z"/>
<path d="M805 7025 l-70 -12 81 -2 c64 -1 83 2 88 14 6 18 -1 18 -99 0z"/>
<path d="M7335 6620 c3 -14 8 -34 11 -46 4 -17 -2 -24 -33 -37 -27 -12 -31
-15 -11 -12 14 3 33 7 41 11 11 4 20 -8 32 -41 22 -57 31 -54 10 4 l-15 42 53
24 c61 28 60 30 -6 10 l-48 -14 -20 42 c-11 23 -17 31 -14 17z"/>
<path d="M930 2313 c0 -21 28 -59 37 -50 2 3 -5 20 -16 38 -18 29 -21 31 -21
12z"/>
<path d="M960 2221 c0 -5 5 -13 10 -16 6 -3 10 -2 10 4 0 5 -4 13 -10 16 -5 3
-10 2 -10 -4z"/>
<path d="M1020 2141 c0 -5 11 -16 25 -25 27 -18 30 -15 15 15 -11 19 -40 27
-40 10z"/>
<path d="M5430 1162 c0 -24 40 -99 64 -122 l27 -25 37 20 c20 11 38 27 40 35
2 13 -60 51 -160 98 -5 2 -8 -1 -8 -6z"/>
</g>
</svg>
