<?xml version="1.0" standalone="no"?>
<!DOCTYPE svg PUBLIC "-//W3C//DTD SVG 20010904//EN"
 "http://www.w3.org/TR/2001/REC-SVG-20010904/DTD/svg10.dtd">
<svg version="1.0" xmlns="http://www.w3.org/2000/svg"
 width="1280.000000pt" height="1156.000000pt" viewBox="0 0 1280.000000 1156.000000"
 preserveAspectRatio="xMidYMid meet">
<metadata>
Created by potrace 1.15, written by Peter Selinger 2001-2017
</metadata>
<g transform="translate(0.000000,1156.000000) scale(0.100000,-0.100000)"
fill="#000000" stroke="none">
<path d="M10014 9666 c-350 -80 -1469 -716 -3166 -1801 l-186 -120 -12 -60
c-33 -165 -105 -330 -171 -389 -75 -69 -141 -66 -310 13 -134 62 -190 75 -250
61 -155 -37 -326 -214 -521 -537 l-77 -128 28 -50 c53 -95 241 -453 241 -460
0 -3 -4 -3 -10 0 -5 3 -10 0 -10 -8 0 -8 -6 -20 -14 -26 -11 -10 -17 -8 -25 6
-16 28 -13 5 5 -28 8 -17 14 -32 12 -34 -2 -2 -48 -29 -103 -61 -55 -31 -725
-419 -1488 -861 l-1388 -803 -243 0 -244 0 -438 -488 c-242 -268 -453 -503
-471 -523 -33 -36 -33 -37 -18 -72 8 -20 15 -45 15 -57 0 -20 186 -260 202
-260 4 0 8 6 8 13 1 6 9 2 19 -10 l18 -22 294 123 c162 67 461 191 664 275
l370 152 72 272 c40 150 73 280 75 290 2 12 448 271 1438 832 1189 675 1435
818 1434 835 0 11 0 20 1 20 1 0 20 -28 43 -62 23 -35 53 -76 66 -93 l25 -30
-3 28 c-5 39 2 30 89 -128 43 -77 79 -142 81 -144 6 -7 164 -29 296 -42 236
-21 445 0 530 56 79 53 113 125 148 320 30 168 55 240 102 291 61 66 122 85
277 85 110 0 164 -6 331 -36 33 -6 94 22 655 304 1208 605 1989 1034 2445
1342 249 168 280 195 319 272 100 195 23 486 -266 1008 -147 265 -259 424
-384 545 -168 162 -341 227 -505 190z"/>
<path d="M2060 3039 c-52 -5 -126 -16 -164 -24 -164 -34 -78 -50 228 -42 280
8 455 32 427 60 -15 15 -356 19 -491 6z"/>
</g>
</svg>
