<?xml version="1.0"?>
<svg width="1280" height="640" xmlns="http://www.w3.org/2000/svg" xmlns:svg="http://www.w3.org/2000/svg" preserveAspectRatio="xMidYMid meet">
 <metadata>Created by potrace 1.15, written by Peter Selinger 2001-2017</metadata>
 <g class="layer">
  <title>Layer 1</title>
  <g fill="#000000" id="svg_1" transform="rotate(-26.9673 639.6 319.956) translate(0 640) scale(0.1 -0.1)">
   <path d="m1120,5438c-157,-33 -277,-84 -416,-176c-267,-177 -497,-466 -650,-818c-38,-88 -48,-123 -52,-181l-4,-73l695,0c413,0 737,-4 798,-11c264,-26 478,-122 658,-294c528,-504 326,-1335 -385,-1589c-170,-61 -150,-59 -991,-63l-773,-4l0,-65c0,-52 8,-84 41,-167c181,-459 535,-840 910,-981c158,-59 155,-59 899,-63c447,-3 724,-1 797,6c284,28 520,148 753,381c63,63 145,158 182,210c66,94 173,290 218,403l24,57l2428,0l2428,0l17,-27c70,-111 213,-281 324,-388c565,-541 1359,-744 2119,-544c620,164 1151,600 1430,1174c74,153 123,285 159,433c53,211 65,317 65,552c0,236 -12,342 -66,555c-189,756 -787,1374 -1540,1591c-389,112 -806,116 -1198,13c-362,-96 -696,-284 -973,-548c-112,-106 -267,-294 -322,-389l-19,-32l-2429,2l-2428,3l-38,91c-177,430 -518,776 -887,900c-161,54 -166,54 -977,53c-440,-1 -771,-5 -797,-11zm9984,-1355c13,-21 132,-226 265,-455l240,-418l-258,-447l-259,-448l-528,0l-528,0l-259,448l-258,447l262,455l262,455l519,0l518,0l24,-37z" id="svg_2"/>
  </g>
 </g>
</svg>