<?xml version="1.0" standalone="no"?>
<!DOCTYPE svg PUBLIC "-//W3C//DTD SVG 20010904//EN"
 "http://www.w3.org/TR/2001/REC-SVG-20010904/DTD/svg10.dtd">
<svg version="1.0" xmlns="http://www.w3.org/2000/svg"
 width="1280.000000pt" height="1028.000000pt" viewBox="0 0 1280.000000 1028.000000"
 preserveAspectRatio="xMidYMid meet">
<metadata>
Created by potrace 1.15, written by Peter Selinger 2001-2017
</metadata>
<g transform="translate(0.000000,1028.000000) scale(0.100000,-0.100000)"
fill="#000000" stroke="none">
<path d="M4635 10163 c-534 -477 -972 -714 -1510 -819 -66 -13 -142 -18 -285
-18 -183 -1 -202 1 -305 28 -60 15 -207 62 -325 103 -225 79 -300 97 -300 71
0 -46 132 -392 317 -831 l125 -298 -4 -73 c-3 -63 -10 -87 -49 -167 l-47 -94
-5 -150 c-7 -182 -26 -274 -79 -384 -130 -272 -420 -351 -878 -239 -328 79
-800 290 -1204 537 -45 28 -68 37 -70 29 -15 -46 -14 -84 4 -222 34 -261 100
-615 161 -866 125 -512 348 -1168 481 -1420 306 -578 1075 -1252 2213 -1942
310 -187 770 -439 827 -452 l27 -6 -25 62 c-96 234 -337 942 -468 1371 -53
173 -68 237 -81 347 -28 255 -45 545 -45 806 0 470 48 813 141 997 78 154 220
336 321 412 66 49 75 52 104 31 17 -13 20 -31 25 -168 6 -183 17 -213 108
-310 153 -164 499 -337 939 -471 l111 -33 130 -118 c71 -65 132 -124 135 -132
3 -8 18 -22 34 -31 16 -10 188 -164 382 -343 l353 -325 548 -405 c433 -320
599 -436 791 -554 839 -516 1653 -1067 2333 -1580 225 -170 269 -209 700 -621
833 -796 1165 -1116 1213 -1171 l47 -53 2 -108 c1 -121 26 -205 82 -287 138
-201 481 -318 704 -240 150 52 390 438 464 747 12 50 17 112 17 202 0 122 -2
135 -31 208 -65 163 -187 271 -383 339 -103 36 -282 68 -381 68 -43 0 -70 7
-113 29 -217 115 -1143 848 -2686 2127 -305 253 -566 469 -580 481 -14 12
-167 140 -340 284 -334 279 -855 715 -1055 884 -66 56 -223 188 -350 294 -126
107 -239 202 -250 212 -11 10 -288 245 -615 521 -689 583 -1576 1356 -1573
1372 2 6 10 40 18 76 10 42 17 130 19 245 6 281 27 421 200 1360 60 328 81
462 96 630 12 131 13 175 3 175 -5 0 -66 -53 -138 -117z m-968 -3075 c-3 -8
-6 -5 -6 6 -1 11 2 17 5 13 3 -3 4 -12 1 -19z m17 -87 c-9 -12 -20 13 -16 36
l6 28 6 -30 c4 -16 5 -32 4 -34z"/>
</g>
</svg>
